<?xml version="1.0" encoding="UTF-8" standalone="no"?>
<!DOCTYPE svg PUBLIC "-//W3C//DTD SVG 1.1//EN"
 "http://www.w3.org/Graphics/SVG/1.1/DTD/svg11.dtd">
<!-- Generated by graphviz version 2.40.1 (20161225.0304)
 -->
<!-- Title: undefined Pages: 1 -->
<svg width="606pt" height="645pt"
 viewBox="0.00 0.00 605.60 645.10" xmlns="http://www.w3.org/2000/svg" xmlns:xlink="http://www.w3.org/1999/xlink">
<g id="graph0" class="graph" transform="scale(1 1) rotate(0) translate(28.8 616.3)">
<title>undefined</title>
<polygon fill="#ffffff" stroke="transparent" points="-28.8,28.8 -28.8,-616.3 576.8,-616.3 576.8,28.8 -28.8,28.8"/>
<text text-anchor="start" x="180" y="-8.4" font-family="Helvetica,sans-Serif" font-weight="bold" font-size="12.00" fill="#000000">Kratos Debug Database Diagram</text>
<!-- instance -->
<g id="node1" class="node">
<title>instance</title>
<path fill="none" stroke="#000000" d="M416,-285.5C416,-285.5 536,-285.5 536,-285.5 542,-285.5 548,-291.5 548,-297.5 548,-297.5 548,-343.5 548,-343.5 548,-349.5 542,-355.5 536,-355.5 536,-355.5 416,-355.5 416,-355.5 410,-355.5 404,-349.5 404,-343.5 404,-343.5 404,-297.5 404,-297.5 404,-291.5 410,-285.5 416,-285.5"/>
<text text-anchor="start" x="449" y="-335.1" font-family="Helvetica,sans-Serif" font-weight="bold" font-size="13.00" fill="#000000">instance</text>
<polyline fill="none" stroke="#000000" points="404,-325.5 548,-325.5 "/>
<text text-anchor="start" x="411" y="-311.9" font-family="Helvetica,sans-Serif" font-size="12.00" fill="#000000">id* </text>
<text text-anchor="start" x="429" y="-311.9" font-family="Helvetica,sans-Serif" font-weight="bold" font-size="12.00" fill="#000000">integer</text>
<text text-anchor="start" x="411" y="-294.9" font-family="Helvetica,sans-Serif" font-size="12.00" fill="#000000">handle_name </text>
<text text-anchor="start" x="488" y="-294.9" font-family="Helvetica,sans-Serif" font-weight="bold" font-size="12.00" fill="#000000">text</text>
</g>
<!-- context -->
<g id="node2" class="node">
<title>context</title>
<path fill="none" stroke="#000000" d="M12,-112C12,-112 132,-112 132,-112 138,-112 144,-118 144,-124 144,-124 144,-187 144,-187 144,-193 138,-199 132,-199 132,-199 12,-199 12,-199 6,-199 0,-193 0,-187 0,-187 0,-124 0,-124 0,-118 6,-112 12,-112"/>
<text text-anchor="start" x="48" y="-178.6" font-family="Helvetica,sans-Serif" font-weight="bold" font-size="13.00" fill="#000000">context</text>
<polyline fill="none" stroke="#000000" points="0,-169 144,-169 "/>
<text text-anchor="start" x="7" y="-154.9" font-family="Helvetica,sans-Serif" font-size="12.00" fill="#000000">variable_id </text>
<text text-anchor="start" x="70" y="-154.9" font-family="Helvetica,sans-Serif" font-weight="bold" font-size="12.00" fill="#000000">integer</text>
<text text-anchor="start" x="7" y="-137.9" font-family="Helvetica,sans-Serif" font-size="12.00" fill="#000000">breakpoint_id </text>
<text text-anchor="start" x="83" y="-137.9" font-family="Helvetica,sans-Serif" font-weight="bold" font-size="12.00" fill="#000000">integer</text>
<text text-anchor="start" x="7" y="-120.9" font-family="Helvetica,sans-Serif" font-size="12.00" fill="#000000">name </text>
<text text-anchor="start" x="41" y="-120.9" font-family="Helvetica,sans-Serif" font-weight="bold" font-size="12.00" fill="#000000">text</text>
</g>
<!-- variable -->
<g id="node5" class="node">
<title>variable</title>
<path fill="none" stroke="#000000" d="M214,-169.5C214,-169.5 334,-169.5 334,-169.5 340,-169.5 346,-175.5 346,-181.5 346,-181.5 346,-295.5 346,-295.5 346,-301.5 340,-307.5 334,-307.5 334,-307.5 214,-307.5 214,-307.5 208,-307.5 202,-301.5 202,-295.5 202,-295.5 202,-181.5 202,-181.5 202,-175.5 208,-169.5 214,-169.5"/>
<text text-anchor="start" x="248" y="-287.1" font-family="Helvetica,sans-Serif" font-weight="bold" font-size="13.00" fill="#000000">variable</text>
<polyline fill="none" stroke="#000000" points="202,-277.5 346,-277.5 "/>
<text text-anchor="start" x="209" y="-263.9" font-family="Helvetica,sans-Serif" font-size="12.00" fill="#000000">id* </text>
<text text-anchor="start" x="227" y="-263.9" font-family="Helvetica,sans-Serif" font-weight="bold" font-size="12.00" fill="#000000">integer</text>
<text text-anchor="start" x="209" y="-246.9" font-family="Helvetica,sans-Serif" font-size="12.00" fill="#000000">handle </text>
<text text-anchor="start" x="249" y="-246.9" font-family="Helvetica,sans-Serif" font-weight="bold" font-size="12.00" fill="#000000">integer</text>
<text text-anchor="start" x="209" y="-229.9" font-family="Helvetica,sans-Serif" font-size="12.00" fill="#000000">value </text>
<text text-anchor="start" x="242" y="-229.9" font-family="Helvetica,sans-Serif" font-weight="bold" font-size="12.00" fill="#000000">text</text>
<text text-anchor="start" x="209" y="-212.9" font-family="Helvetica,sans-Serif" font-size="12.00" fill="#000000">name </text>
<text text-anchor="start" x="243" y="-212.9" font-family="Helvetica,sans-Serif" font-weight="bold" font-size="12.00" fill="#000000">text</text>
<text text-anchor="start" x="209" y="-195.9" font-family="Helvetica,sans-Serif" font-size="12.00" fill="#000000">is_var </text>
<text text-anchor="start" x="245" y="-195.9" font-family="Helvetica,sans-Serif" font-weight="bold" font-size="12.00" fill="#000000">integer</text>
<text text-anchor="start" x="209" y="-178.9" font-family="Helvetica,sans-Serif" font-size="12.00" fill="#000000">is_context </text>
<text text-anchor="start" x="267" y="-178.9" font-family="Helvetica,sans-Serif" font-weight="bold" font-size="12.00" fill="#000000">integer</text>
</g>
<!-- context&#45;&gt;variable -->
<g id="edge2" class="edge">
<title>context&#45;&gt;variable</title>
<path fill="none" stroke="#000000" stroke-width=".9" d="M144.0711,-185.1134C160.3816,-191.8152 177.7912,-198.9687 194.3927,-205.7901"/>
<polygon fill="#000000" stroke="#000000" stroke-width=".9" points="193.4928,-208.4474 201.9567,-208.898 195.6212,-203.2676 193.4928,-208.4474"/>
</g>
<!-- breakpoint -->
<g id="node6" class="node">
<title>breakpoint</title>
<path fill="none" stroke="#000000" d="M214,-21.5C214,-21.5 334,-21.5 334,-21.5 340,-21.5 346,-27.5 346,-33.5 346,-33.5 346,-113.5 346,-113.5 346,-119.5 340,-125.5 334,-125.5 334,-125.5 214,-125.5 214,-125.5 208,-125.5 202,-119.5 202,-113.5 202,-113.5 202,-33.5 202,-33.5 202,-27.5 208,-21.5 214,-21.5"/>
<text text-anchor="start" x="239" y="-105.1" font-family="Helvetica,sans-Serif" font-weight="bold" font-size="13.00" fill="#000000">breakpoint</text>
<polyline fill="none" stroke="#000000" points="202,-95.5 346,-95.5 "/>
<text text-anchor="start" x="209" y="-81.9" font-family="Helvetica,sans-Serif" font-size="12.00" fill="#000000">id* </text>
<text text-anchor="start" x="227" y="-81.9" font-family="Helvetica,sans-Serif" font-weight="bold" font-size="12.00" fill="#000000">integer</text>
<text text-anchor="start" x="209" y="-64.9" font-family="Helvetica,sans-Serif" font-size="12.00" fill="#000000">filename </text>
<text text-anchor="start" x="258" y="-64.9" font-family="Helvetica,sans-Serif" font-weight="bold" font-size="12.00" fill="#000000">text</text>
<text text-anchor="start" x="209" y="-47.9" font-family="Helvetica,sans-Serif" font-size="12.00" fill="#000000">line_num </text>
<text text-anchor="start" x="262" y="-47.9" font-family="Helvetica,sans-Serif" font-weight="bold" font-size="12.00" fill="#000000">integer</text>
<text text-anchor="start" x="209" y="-30.9" font-family="Helvetica,sans-Serif" font-size="12.00" fill="#000000">handle </text>
<text text-anchor="start" x="249" y="-30.9" font-family="Helvetica,sans-Serif" font-weight="bold" font-size="12.00" fill="#000000">integer</text>
</g>
<!-- context&#45;&gt;breakpoint -->
<g id="edge1" class="edge">
<title>context&#45;&gt;breakpoint</title>
<path fill="none" stroke="#000000" stroke-width=".9" d="M144.0711,-126.2434C160.3816,-119.6223 177.7912,-112.555 194.3927,-105.8158"/>
<polygon fill="#000000" stroke="#000000" stroke-width=".9" points="195.5973,-108.3488 201.9567,-102.7453 193.491,-103.16 195.5973,-108.3488"/>
</g>
<!-- hierarchy -->
<g id="node3" class="node">
<title>hierarchy</title>
<path fill="none" stroke="#000000" d="M214,-500C214,-500 334,-500 334,-500 340,-500 346,-506 346,-512 346,-512 346,-575 346,-575 346,-581 340,-587 334,-587 334,-587 214,-587 214,-587 208,-587 202,-581 202,-575 202,-575 202,-512 202,-512 202,-506 208,-500 214,-500"/>
<text text-anchor="start" x="244" y="-566.6" font-family="Helvetica,sans-Serif" font-weight="bold" font-size="13.00" fill="#000000">hierarchy</text>
<polyline fill="none" stroke="#000000" points="202,-557 346,-557 "/>
<text text-anchor="start" x="209" y="-542.9" font-family="Helvetica,sans-Serif" font-size="12.00" fill="#000000">parent_handle </text>
<text text-anchor="start" x="290" y="-542.9" font-family="Helvetica,sans-Serif" font-weight="bold" font-size="12.00" fill="#000000">integer</text>
<text text-anchor="start" x="209" y="-525.9" font-family="Helvetica,sans-Serif" font-size="12.00" fill="#000000">name </text>
<text text-anchor="start" x="243" y="-525.9" font-family="Helvetica,sans-Serif" font-weight="bold" font-size="12.00" fill="#000000">text</text>
<text text-anchor="start" x="209" y="-508.9" font-family="Helvetica,sans-Serif" font-size="12.00" fill="#000000">handle </text>
<text text-anchor="start" x="249" y="-508.9" font-family="Helvetica,sans-Serif" font-weight="bold" font-size="12.00" fill="#000000">integer</text>
</g>
<!-- hierarchy&#45;&gt;instance -->
<g id="edge3" class="edge">
<title>hierarchy&#45;&gt;instance</title>
<path fill="none" stroke="#000000" stroke-width=".9" d="M321.6241,-499.8446C335.0137,-487.5708 346,-477.5 346,-477.5 346,-477.5 403.0083,-408.6515 441.5217,-362.1392"/>
<polygon fill="#000000" stroke="#000000" stroke-width=".9" points="443.8799,-363.6815 446.8255,-355.7339 439.5666,-360.1099 443.8799,-363.6815"/>
</g>
<!-- connection -->
<g id="node4" class="node">
<title>connection</title>
<path fill="none" stroke="#000000" d="M214,-351.5C214,-351.5 334,-351.5 334,-351.5 340,-351.5 346,-357.5 346,-363.5 346,-363.5 346,-443.5 346,-443.5 346,-449.5 340,-455.5 334,-455.5 334,-455.5 214,-455.5 214,-455.5 208,-455.5 202,-449.5 202,-443.5 202,-443.5 202,-363.5 202,-363.5 202,-357.5 208,-351.5 214,-351.5"/>
<text text-anchor="start" x="238" y="-435.1" font-family="Helvetica,sans-Serif" font-weight="bold" font-size="13.00" fill="#000000">connection</text>
<polyline fill="none" stroke="#000000" points="202,-425.5 346,-425.5 "/>
<text text-anchor="start" x="209" y="-411.9" font-family="Helvetica,sans-Serif" font-size="12.00" fill="#000000">handle_from </text>
<text text-anchor="start" x="279" y="-411.9" font-family="Helvetica,sans-Serif" font-weight="bold" font-size="12.00" fill="#000000">integer</text>
<text text-anchor="start" x="209" y="-394.9" font-family="Helvetica,sans-Serif" font-size="12.00" fill="#000000">var_from </text>
<text text-anchor="start" x="259" y="-394.9" font-family="Helvetica,sans-Serif" font-weight="bold" font-size="12.00" fill="#000000">text</text>
<text text-anchor="start" x="209" y="-377.9" font-family="Helvetica,sans-Serif" font-size="12.00" fill="#000000">handle_to </text>
<text text-anchor="start" x="266" y="-377.9" font-family="Helvetica,sans-Serif" font-weight="bold" font-size="12.00" fill="#000000">integer</text>
<text text-anchor="start" x="209" y="-360.9" font-family="Helvetica,sans-Serif" font-size="12.00" fill="#000000">var_to </text>
<text text-anchor="start" x="246" y="-360.9" font-family="Helvetica,sans-Serif" font-weight="bold" font-size="12.00" fill="#000000">text</text>
</g>
<!-- connection&#45;&gt;instance -->
<g id="edge4" class="edge">
<title>connection&#45;&gt;instance</title>
<path fill="none" stroke="#000000" stroke-width=".9" d="M346.0711,-373.8866C362.3816,-367.1848 379.7912,-360.0313 396.3927,-353.2099"/>
<polygon fill="#000000" stroke="#000000" stroke-width=".9" points="397.6212,-355.7324 403.9567,-350.102 395.4928,-350.5526 397.6212,-355.7324"/>
</g>
<!-- variable&#45;&gt;instance -->
<g id="edge6" class="edge">
<title>variable&#45;&gt;instance</title>
<path fill="none" stroke="#000000" stroke-width=".9" d="M346.0711,-267.7566C362.3816,-274.3777 379.7912,-281.445 396.3927,-288.1842"/>
<polygon fill="#000000" stroke="#000000" stroke-width=".9" points="395.491,-290.84 403.9567,-291.2547 397.5973,-285.6512 395.491,-290.84"/>
</g>
<!-- breakpoint&#45;&gt;instance -->
<g id="edge7" class="edge">
<title>breakpoint&#45;&gt;instance</title>
<path fill="none" stroke="#000000" stroke-width=".9" d="M324.787,-125.6978C336.7012,-137.9429 346,-147.5 346,-147.5 346,-147.5 406.4268,-227.9141 444.885,-279.0931"/>
<polygon fill="#000000" stroke="#000000" stroke-width=".9" points="442.6482,-280.7774 449.6926,-285.4909 447.1251,-277.4132 442.6482,-280.7774"/>
</g>
<!-- metadata -->
<g id="node7" class="node">
<title>metadata</title>
<path fill="none" stroke="#000000" d="M12,-243.5C12,-243.5 132,-243.5 132,-243.5 138,-243.5 144,-249.5 144,-255.5 144,-255.5 144,-301.5 144,-301.5 144,-307.5 138,-313.5 132,-313.5 132,-313.5 12,-313.5 12,-313.5 6,-313.5 0,-307.5 0,-301.5 0,-301.5 0,-255.5 0,-255.5 0,-249.5 6,-243.5 12,-243.5"/>
<text text-anchor="start" x="43" y="-293.1" font-family="Helvetica,sans-Serif" font-weight="bold" font-size="13.00" fill="#000000">metadata</text>
<polyline fill="none" stroke="#000000" points="0,-283.5 144,-283.5 "/>
<text text-anchor="start" x="7" y="-269.9" font-family="Helvetica,sans-Serif" font-size="12.00" fill="#000000">name </text>
<text text-anchor="start" x="41" y="-269.9" font-family="Helvetica,sans-Serif" font-weight="bold" font-size="12.00" fill="#000000">text</text>
<text text-anchor="start" x="7" y="-252.9" font-family="Helvetica,sans-Serif" font-size="12.00" fill="#000000">value </text>
<text text-anchor="start" x="40" y="-252.9" font-family="Helvetica,sans-Serif" font-weight="bold" font-size="12.00" fill="#000000">text</text>
</g>
</g>
</svg>
