<?xml version="1.0" encoding="UTF-8" standalone="no"?>
<!DOCTYPE svg PUBLIC "-//W3C//DTD SVG 1.1//EN"
 "http://www.w3.org/Graphics/SVG/1.1/DTD/svg11.dtd">
<!-- Generated by graphviz version 2.43.0 (0)
 -->
<!-- Title: SchemaCrawler_Diagram Pages: 1 -->
<svg width="852pt" height="509pt"
 viewBox="0.00 0.00 852.00 509.34" xmlns="http://www.w3.org/2000/svg" xmlns:xlink="http://www.w3.org/1999/xlink">
<g id="graph0" class="graph" transform="scale(1 1) rotate(0) translate(4 505.34)">
<title>SchemaCrawler_Diagram</title>
<polygon fill="white" stroke="transparent" points="-4,4 -4,-505.34 848,-505.34 848,4 -4,4"/>
<!-- breakpoint_4e9f3850 -->
<g id="node1" class="node">
<title>breakpoint_4e9f3850</title>
<polygon fill="#f2e9ce" stroke="transparent" points="320.5,-107.84 320.5,-126.84 410.5,-126.84 410.5,-107.84 320.5,-107.84"/>
<text text-anchor="start" x="322.5" y="-114.64" font-family="Helvetica,sans-Serif" font-weight="bold" font-style="italic" font-size="14.00">breakpoint</text>
<polygon fill="#f2e9ce" stroke="transparent" points="410.5,-107.84 410.5,-126.84 551.5,-126.84 551.5,-107.84 410.5,-107.84"/>
<text text-anchor="start" x="503.5" y="-113.64" font-family="Helvetica,sans-Serif" font-size="14.00">[table]</text>
<text text-anchor="start" x="322.5" y="-95.64" font-family="Helvetica,sans-Serif" font-weight="bold" font-style="italic" font-size="14.00">id</text>
<text text-anchor="start" x="396.5" y="-94.64" font-family="Helvetica,sans-Serif" font-size="14.00"> </text>
<text text-anchor="start" x="412.5" y="-94.64" font-family="Helvetica,sans-Serif" font-size="14.00">INTEGER NOT NULL</text>
<text text-anchor="start" x="322.5" y="-75.64" font-family="Helvetica,sans-Serif" font-size="14.00">filename</text>
<text text-anchor="start" x="396.5" y="-75.64" font-family="Helvetica,sans-Serif" font-size="14.00"> </text>
<text text-anchor="start" x="412.5" y="-75.64" font-family="Helvetica,sans-Serif" font-size="14.00">TEXT NOT NULL</text>
<text text-anchor="start" x="322.5" y="-56.64" font-family="Helvetica,sans-Serif" font-size="14.00">line_num</text>
<text text-anchor="start" x="396.5" y="-56.64" font-family="Helvetica,sans-Serif" font-size="14.00"> </text>
<text text-anchor="start" x="412.5" y="-56.64" font-family="Helvetica,sans-Serif" font-size="14.00">INTEGER NOT NULL</text>
<polygon fill="none" stroke="#888888" points="319,-49.84 319,-127.84 552,-127.84 552,-49.84 319,-49.84"/>
</g>
<!-- context_38b7aa0e -->
<g id="node2" class="node">
<title>context_38b7aa0e</title>
<polygon fill="#f2e9ce" stroke="transparent" points="614.5,-219.84 614.5,-238.84 721.5,-238.84 721.5,-219.84 614.5,-219.84"/>
<text text-anchor="start" x="616.5" y="-226.64" font-family="Helvetica,sans-Serif" font-weight="bold" font-style="italic" font-size="14.00">context</text>
<polygon fill="#f2e9ce" stroke="transparent" points="721.5,-219.84 721.5,-238.84 835.5,-238.84 835.5,-219.84 721.5,-219.84"/>
<text text-anchor="start" x="787.5" y="-225.64" font-family="Helvetica,sans-Serif" font-size="14.00">[table]</text>
<text text-anchor="start" x="616.5" y="-206.64" font-family="Helvetica,sans-Serif" font-size="14.00">variable_id</text>
<text text-anchor="start" x="714.5" y="-206.64" font-family="Helvetica,sans-Serif" font-size="14.00"> </text>
<text text-anchor="start" x="723.5" y="-206.64" font-family="Helvetica,sans-Serif" font-size="14.00">INTEGER</text>
<text text-anchor="start" x="616.5" y="-187.64" font-family="Helvetica,sans-Serif" font-size="14.00">breakpoint_id</text>
<text text-anchor="start" x="714.5" y="-187.64" font-family="Helvetica,sans-Serif" font-size="14.00"> </text>
<text text-anchor="start" x="723.5" y="-187.64" font-family="Helvetica,sans-Serif" font-size="14.00">INTEGER</text>
<text text-anchor="start" x="616.5" y="-168.64" font-family="Helvetica,sans-Serif" font-size="14.00">name</text>
<text text-anchor="start" x="714.5" y="-168.64" font-family="Helvetica,sans-Serif" font-size="14.00"> </text>
<text text-anchor="start" x="723.5" y="-168.64" font-family="Helvetica,sans-Serif" font-size="14.00">TEXT NOT NULL</text>
<polygon fill="none" stroke="#888888" points="613,-161.84 613,-239.84 836,-239.84 836,-161.84 613,-161.84"/>
</g>
<!-- context_38b7aa0e&#45;&gt;breakpoint_4e9f3850 -->
<g id="edge1" class="edge">
<title>context_38b7aa0e:w&#45;&gt;breakpoint_4e9f3850:e</title>
<path fill="none" stroke="black" d="M596.16,-184.8C576.02,-166.26 590.52,-110.73 562.61,-100.48"/>
<polygon fill="black" stroke="black" points="604.06,-187.55 612.02,-195.09 608.78,-189.2 613.5,-190.84 613.5,-190.84 613.5,-190.84 608.78,-189.2 614.98,-186.59 604.06,-187.55 604.06,-187.55"/>
<ellipse fill="none" stroke="black" cx="600.28" cy="-186.24" rx="4" ry="4"/>
<polygon fill="black" stroke="black" points="552.69,-103.94 554.29,-94.06 556.26,-94.38 554.66,-104.26 552.69,-103.94"/>
<polyline fill="none" stroke="black" points="552.5,-98.84 557.44,-99.64 "/>
<polygon fill="black" stroke="black" points="557.62,-104.73 559.22,-94.86 561.2,-95.18 559.6,-105.05 557.62,-104.73"/>
<polyline fill="none" stroke="black" points="557.44,-99.64 562.37,-100.44 "/>
</g>
<!-- variable_b58546db -->
<g id="node7" class="node">
<title>variable_b58546db</title>
<polygon fill="#f2e9ce" stroke="transparent" points="311.5,-249.84 311.5,-268.84 419.5,-268.84 419.5,-249.84 311.5,-249.84"/>
<text text-anchor="start" x="313.5" y="-256.64" font-family="Helvetica,sans-Serif" font-weight="bold" font-style="italic" font-size="14.00">variable</text>
<polygon fill="#f2e9ce" stroke="transparent" points="419.5,-249.84 419.5,-268.84 560.5,-268.84 560.5,-249.84 419.5,-249.84"/>
<text text-anchor="start" x="512.5" y="-255.64" font-family="Helvetica,sans-Serif" font-size="14.00">[table]</text>
<text text-anchor="start" x="313.5" y="-237.64" font-family="Helvetica,sans-Serif" font-weight="bold" font-style="italic" font-size="14.00">id</text>
<text text-anchor="start" x="412.5" y="-236.64" font-family="Helvetica,sans-Serif" font-size="14.00"> </text>
<text text-anchor="start" x="421.5" y="-236.64" font-family="Helvetica,sans-Serif" font-size="14.00">INTEGER NOT NULL</text>
<text text-anchor="start" x="313.5" y="-217.64" font-family="Helvetica,sans-Serif" font-size="14.00">handle</text>
<text text-anchor="start" x="412.5" y="-217.64" font-family="Helvetica,sans-Serif" font-size="14.00"> </text>
<text text-anchor="start" x="421.5" y="-217.64" font-family="Helvetica,sans-Serif" font-size="14.00">INTEGER</text>
<text text-anchor="start" x="313.5" y="-198.64" font-family="Helvetica,sans-Serif" font-size="14.00">&quot;value&quot;</text>
<text text-anchor="start" x="412.5" y="-198.64" font-family="Helvetica,sans-Serif" font-size="14.00"> </text>
<text text-anchor="start" x="421.5" y="-198.64" font-family="Helvetica,sans-Serif" font-size="14.00">TEXT NOT NULL</text>
<text text-anchor="start" x="313.5" y="-179.64" font-family="Helvetica,sans-Serif" font-size="14.00">name</text>
<text text-anchor="start" x="412.5" y="-179.64" font-family="Helvetica,sans-Serif" font-size="14.00"> </text>
<text text-anchor="start" x="421.5" y="-179.64" font-family="Helvetica,sans-Serif" font-size="14.00">TEXT NOT NULL</text>
<text text-anchor="start" x="313.5" y="-160.64" font-family="Helvetica,sans-Serif" font-size="14.00">is_verilog_var</text>
<text text-anchor="start" x="412.5" y="-160.64" font-family="Helvetica,sans-Serif" font-size="14.00"> </text>
<text text-anchor="start" x="421.5" y="-160.64" font-family="Helvetica,sans-Serif" font-size="14.00">INTEGER NOT NULL</text>
<polygon fill="none" stroke="#888888" points="310,-153.84 310,-269.84 561,-269.84 561,-153.84 310,-153.84"/>
</g>
<!-- context_38b7aa0e&#45;&gt;variable_b58546db -->
<g id="edge8" class="edge">
<title>context_38b7aa0e:w&#45;&gt;variable_b58546db:e</title>
<path fill="none" stroke="black" d="M596.39,-216.62C587.61,-223.57 582.84,-234.82 571.57,-239.11"/>
<polygon fill="black" stroke="black" points="604.03,-214.04 614.94,-215.1 608.76,-212.44 613.5,-210.84 613.5,-210.84 613.5,-210.84 608.76,-212.44 612.06,-206.58 604.03,-214.04 604.03,-214.04"/>
<ellipse fill="none" stroke="black" cx="600.24" cy="-215.33" rx="4" ry="4"/>
<polygon fill="black" stroke="black" points="563.33,-245.6 561.64,-235.74 563.61,-235.4 565.3,-245.26 563.33,-245.6"/>
<polyline fill="none" stroke="black" points="561.5,-240.84 566.43,-239.99 "/>
<polygon fill="black" stroke="black" points="568.26,-244.75 566.57,-234.9 568.54,-234.56 570.23,-244.41 568.26,-244.75"/>
<polyline fill="none" stroke="black" points="566.43,-239.99 571.36,-239.15 "/>
</g>
<!-- instance_set_d40da217 -->
<g id="node3" class="node">
<title>instance_set_d40da217</title>
<polygon fill="#f2e9ce" stroke="transparent" points="638.5,-56.84 638.5,-75.84 745.5,-75.84 745.5,-56.84 638.5,-56.84"/>
<text text-anchor="start" x="640.5" y="-63.64" font-family="Helvetica,sans-Serif" font-weight="bold" font-style="italic" font-size="14.00">instance_set</text>
<polygon fill="#f2e9ce" stroke="transparent" points="745.5,-56.84 745.5,-75.84 811.5,-75.84 811.5,-56.84 745.5,-56.84"/>
<text text-anchor="start" x="763.5" y="-62.64" font-family="Helvetica,sans-Serif" font-size="14.00">[table]</text>
<text text-anchor="start" x="640.5" y="-43.64" font-family="Helvetica,sans-Serif" font-size="14.00">instance_id</text>
<text text-anchor="start" x="738.5" y="-43.64" font-family="Helvetica,sans-Serif" font-size="14.00"> </text>
<text text-anchor="start" x="747.5" y="-43.64" font-family="Helvetica,sans-Serif" font-size="14.00">INTEGER</text>
<text text-anchor="start" x="640.5" y="-24.64" font-family="Helvetica,sans-Serif" font-size="14.00">breakpoint_id</text>
<text text-anchor="start" x="738.5" y="-24.64" font-family="Helvetica,sans-Serif" font-size="14.00"> </text>
<text text-anchor="start" x="747.5" y="-24.64" font-family="Helvetica,sans-Serif" font-size="14.00">INTEGER</text>
<polygon fill="none" stroke="#888888" points="637,-18.34 637,-77.34 812,-77.34 812,-18.34 637,-18.34"/>
</g>
<!-- instance_set_d40da217&#45;&gt;breakpoint_4e9f3850 -->
<g id="edge2" class="edge">
<title>instance_set_d40da217:w&#45;&gt;breakpoint_4e9f3850:e</title>
<path fill="none" stroke="black" d="M619.71,-31.86C593.45,-45.53 594.2,-89.8 562.8,-97.65"/>
<polygon fill="black" stroke="black" points="627.75,-30.04 638.49,-32.23 632.62,-28.94 637.5,-27.84 637.5,-27.84 637.5,-27.84 632.62,-28.94 636.51,-23.45 627.75,-30.04 627.75,-30.04"/>
<ellipse fill="none" stroke="black" cx="623.84" cy="-30.93" rx="4" ry="4"/>
<polygon fill="black" stroke="black" points="554.07,-103.69 552.92,-93.76 554.9,-93.53 556.06,-103.46 554.07,-103.69"/>
<polyline fill="none" stroke="black" points="552.5,-98.84 557.47,-98.26 "/>
<polygon fill="black" stroke="black" points="559.04,-103.12 557.88,-93.18 559.87,-92.95 561.02,-102.89 559.04,-103.12"/>
<polyline fill="none" stroke="black" points="557.47,-98.26 562.43,-97.69 "/>
</g>
<!-- instance_211708f4 -->
<g id="node6" class="node">
<title>instance_211708f4</title>
<polygon fill="#f2e9ce" stroke="transparent" points="9,-354.84 9,-373.84 116,-373.84 116,-354.84 9,-354.84"/>
<text text-anchor="start" x="11" y="-361.64" font-family="Helvetica,sans-Serif" font-weight="bold" font-style="italic" font-size="14.00">instance</text>
<polygon fill="#f2e9ce" stroke="transparent" points="116,-354.84 116,-373.84 257,-373.84 257,-354.84 116,-354.84"/>
<text text-anchor="start" x="209" y="-360.64" font-family="Helvetica,sans-Serif" font-size="14.00">[table]</text>
<text text-anchor="start" x="11" y="-342.64" font-family="Helvetica,sans-Serif" font-weight="bold" font-style="italic" font-size="14.00">id</text>
<text text-anchor="start" x="109" y="-341.64" font-family="Helvetica,sans-Serif" font-size="14.00"> </text>
<text text-anchor="start" x="118" y="-341.64" font-family="Helvetica,sans-Serif" font-size="14.00">INTEGER NOT NULL</text>
<text text-anchor="start" x="11" y="-322.64" font-family="Helvetica,sans-Serif" font-size="14.00">handle_name</text>
<text text-anchor="start" x="109" y="-322.64" font-family="Helvetica,sans-Serif" font-size="14.00"> </text>
<text text-anchor="start" x="118" y="-322.64" font-family="Helvetica,sans-Serif" font-size="14.00">TEXT NOT NULL</text>
<polygon fill="none" stroke="#888888" points="8,-316.34 8,-375.34 258,-375.34 258,-316.34 8,-316.34"/>
</g>
<!-- instance_set_d40da217&#45;&gt;instance_211708f4 -->
<g id="edge4" class="edge">
<title>instance_set_d40da217:w&#45;&gt;instance_211708f4:e</title>
<path fill="none" stroke="black" d="M619.43,-45.76C602.23,-43.55 592.61,-38.56 569,-36.84 450.64,-28.25 391.65,40.91 302,-36.84 252.62,-79.66 319.06,-316.76 268.07,-342.56"/>
<polygon fill="black" stroke="black" points="627.52,-46.25 637.23,-51.33 632.51,-46.54 637.5,-46.84 637.5,-46.84 637.5,-46.84 632.51,-46.54 637.77,-42.35 627.52,-46.25 627.52,-46.25"/>
<ellipse fill="none" stroke="black" cx="623.52" cy="-46.01" rx="4" ry="4"/>
<polygon fill="black" stroke="black" points="260.08,-349.5 257.87,-339.74 259.82,-339.3 262.03,-349.06 260.08,-349.5"/>
<polyline fill="none" stroke="black" points="258,-344.84 262.88,-343.74 "/>
<polygon fill="black" stroke="black" points="264.96,-348.39 262.75,-338.64 264.7,-338.2 266.91,-347.95 264.96,-348.39"/>
<polyline fill="none" stroke="black" points="262.88,-343.74 267.75,-342.63 "/>
</g>
<!-- connection_d1c4f33d -->
<g id="node4" class="node">
<title>connection_d1c4f33d</title>
<polygon fill="#f2e9ce" stroke="transparent" points="328.5,-476.84 328.5,-495.84 428.5,-495.84 428.5,-476.84 328.5,-476.84"/>
<text text-anchor="start" x="330.5" y="-483.64" font-family="Helvetica,sans-Serif" font-weight="bold" font-style="italic" font-size="14.00">connection</text>
<polygon fill="#f2e9ce" stroke="transparent" points="428.5,-476.84 428.5,-495.84 542.5,-495.84 542.5,-476.84 428.5,-476.84"/>
<text text-anchor="start" x="494.5" y="-482.64" font-family="Helvetica,sans-Serif" font-size="14.00">[table]</text>
<text text-anchor="start" x="330.5" y="-463.64" font-family="Helvetica,sans-Serif" font-size="14.00">handle_from</text>
<text text-anchor="start" x="421.5" y="-463.64" font-family="Helvetica,sans-Serif" font-size="14.00"> </text>
<text text-anchor="start" x="430.5" y="-463.64" font-family="Helvetica,sans-Serif" font-size="14.00">INTEGER</text>
<text text-anchor="start" x="330.5" y="-444.64" font-family="Helvetica,sans-Serif" font-size="14.00">var_from</text>
<text text-anchor="start" x="421.5" y="-444.64" font-family="Helvetica,sans-Serif" font-size="14.00"> </text>
<text text-anchor="start" x="430.5" y="-444.64" font-family="Helvetica,sans-Serif" font-size="14.00">TEXT NOT NULL</text>
<text text-anchor="start" x="330.5" y="-425.64" font-family="Helvetica,sans-Serif" font-size="14.00">handle_to</text>
<text text-anchor="start" x="421.5" y="-425.64" font-family="Helvetica,sans-Serif" font-size="14.00"> </text>
<text text-anchor="start" x="430.5" y="-425.64" font-family="Helvetica,sans-Serif" font-size="14.00">INTEGER</text>
<text text-anchor="start" x="330.5" y="-406.64" font-family="Helvetica,sans-Serif" font-size="14.00">var_to</text>
<text text-anchor="start" x="421.5" y="-406.64" font-family="Helvetica,sans-Serif" font-size="14.00"> </text>
<text text-anchor="start" x="430.5" y="-406.64" font-family="Helvetica,sans-Serif" font-size="14.00">TEXT NOT NULL</text>
<polygon fill="none" stroke="#888888" points="327.5,-400.34 327.5,-497.34 543.5,-497.34 543.5,-400.34 327.5,-400.34"/>
</g>
<!-- connection_d1c4f33d&#45;&gt;instance_211708f4 -->
<g id="edge6" class="edge">
<title>connection_d1c4f33d:w&#45;&gt;instance_211708f4:e</title>
<path fill="none" stroke="black" d="M309.94,-463.17C278.53,-442.24 308.68,-357.6 268.12,-346.13"/>
<polygon fill="black" stroke="black" points="317.84,-465.27 326.34,-472.19 322.67,-466.55 327.5,-467.84 327.5,-467.84 327.5,-467.84 322.67,-466.55 328.66,-463.49 317.84,-465.27 317.84,-465.27"/>
<ellipse fill="none" stroke="black" cx="313.97" cy="-464.24" rx="4" ry="4"/>
<polygon fill="black" stroke="black" points="258.36,-349.93 259.62,-340.01 261.61,-340.26 260.34,-350.18 258.36,-349.93"/>
<polyline fill="none" stroke="black" points="258,-344.84 262.96,-345.47 "/>
<polygon fill="black" stroke="black" points="263.32,-350.56 264.58,-340.64 266.57,-340.89 265.3,-350.81 263.32,-350.56"/>
<polyline fill="none" stroke="black" points="262.96,-345.47 267.92,-346.1 "/>
</g>
<!-- connection_d1c4f33d&#45;&gt;instance_211708f4 -->
<g id="edge7" class="edge">
<title>connection_d1c4f33d:w&#45;&gt;instance_211708f4:e</title>
<path fill="none" stroke="black" d="M310.1,-423.59C287.93,-406.92 296.89,-355.79 268.19,-346.35"/>
<polygon fill="black" stroke="black" points="317.93,-425.95 326.2,-433.15 322.71,-427.39 327.5,-428.84 327.5,-428.84 327.5,-428.84 322.71,-427.39 328.8,-424.53 317.93,-425.95 317.93,-425.95"/>
<ellipse fill="none" stroke="black" cx="314.1" cy="-424.79" rx="4" ry="4"/>
<polygon fill="black" stroke="black" points="258.26,-349.93 259.72,-340.04 261.7,-340.33 260.24,-350.23 258.26,-349.93"/>
<polyline fill="none" stroke="black" points="258,-344.84 262.95,-345.57 "/>
<polygon fill="black" stroke="black" points="263.2,-350.66 264.67,-340.77 266.65,-341.06 265.18,-350.96 263.2,-350.66"/>
<polyline fill="none" stroke="black" points="262.95,-345.57 267.89,-346.3 "/>
</g>
<!-- hierarchy_7e130694 -->
<g id="node5" class="node">
<title>hierarchy_7e130694</title>
<polygon fill="#f2e9ce" stroke="transparent" points="322.5,-353.84 322.5,-372.84 435.5,-372.84 435.5,-353.84 322.5,-353.84"/>
<text text-anchor="start" x="324.5" y="-360.64" font-family="Helvetica,sans-Serif" font-weight="bold" font-style="italic" font-size="14.00">hierarchy</text>
<polygon fill="#f2e9ce" stroke="transparent" points="435.5,-353.84 435.5,-372.84 549.5,-372.84 549.5,-353.84 435.5,-353.84"/>
<text text-anchor="start" x="501.5" y="-359.64" font-family="Helvetica,sans-Serif" font-size="14.00">[table]</text>
<text text-anchor="start" x="324.5" y="-340.64" font-family="Helvetica,sans-Serif" font-size="14.00">parent_handle</text>
<text text-anchor="start" x="428.5" y="-340.64" font-family="Helvetica,sans-Serif" font-size="14.00"> </text>
<text text-anchor="start" x="437.5" y="-340.64" font-family="Helvetica,sans-Serif" font-size="14.00">INTEGER</text>
<text text-anchor="start" x="324.5" y="-321.64" font-family="Helvetica,sans-Serif" font-size="14.00">name</text>
<text text-anchor="start" x="428.5" y="-321.64" font-family="Helvetica,sans-Serif" font-size="14.00"> </text>
<text text-anchor="start" x="437.5" y="-321.64" font-family="Helvetica,sans-Serif" font-size="14.00">TEXT NOT NULL</text>
<text text-anchor="start" x="324.5" y="-302.64" font-family="Helvetica,sans-Serif" font-size="14.00">handle</text>
<text text-anchor="start" x="428.5" y="-302.64" font-family="Helvetica,sans-Serif" font-size="14.00"> </text>
<text text-anchor="start" x="437.5" y="-302.64" font-family="Helvetica,sans-Serif" font-size="14.00">INTEGER</text>
<polygon fill="none" stroke="#888888" points="321,-295.84 321,-373.84 550,-373.84 550,-295.84 321,-295.84"/>
</g>
<!-- hierarchy_7e130694&#45;&gt;instance_211708f4 -->
<g id="edge3" class="edge">
<title>hierarchy_7e130694:w&#45;&gt;instance_211708f4:e</title>
<path fill="none" stroke="black" d="M303.17,-344.84C290.92,-344.84 282.47,-344.84 268.26,-344.84"/>
<polygon fill="black" stroke="black" points="311.5,-344.84 321.5,-349.34 316.5,-344.84 321.5,-344.84 321.5,-344.84 321.5,-344.84 316.5,-344.84 321.5,-340.34 311.5,-344.84 311.5,-344.84"/>
<ellipse fill="none" stroke="black" cx="307.5" cy="-344.84" rx="4" ry="4"/>
<polygon fill="black" stroke="black" points="259,-349.84 259,-339.84 261,-339.84 261,-349.84 259,-349.84"/>
<polyline fill="none" stroke="black" points="258,-344.84 263,-344.84 "/>
<polygon fill="black" stroke="black" points="264,-349.84 264,-339.84 266,-339.84 266,-349.84 264,-349.84"/>
<polyline fill="none" stroke="black" points="263,-344.84 268,-344.84 "/>
</g>
<!-- variable_b58546db&#45;&gt;instance_211708f4 -->
<g id="edge5" class="edge">
<title>variable_b58546db:w&#45;&gt;instance_211708f4:e</title>
<path fill="none" stroke="black" d="M293.25,-227.45C268.1,-249.72 303.68,-331.37 268.02,-343.36"/>
<polygon fill="black" stroke="black" points="300.99,-224.93 311.89,-226.12 305.74,-223.39 310.5,-221.84 310.5,-221.84 310.5,-221.84 305.74,-223.39 309.11,-217.56 300.99,-224.93 300.99,-224.93"/>
<ellipse fill="none" stroke="black" cx="297.18" cy="-226.17" rx="4" ry="4"/>
<polygon fill="black" stroke="black" points="259.72,-349.64 258.26,-339.75 260.24,-339.46 261.7,-349.35 259.72,-349.64"/>
<polyline fill="none" stroke="black" points="258,-344.84 262.95,-344.11 "/>
<polygon fill="black" stroke="black" points="264.66,-348.91 263.21,-339.02 265.19,-338.73 266.64,-348.62 264.66,-348.91"/>
<polyline fill="none" stroke="black" points="262.95,-344.11 267.89,-343.38 "/>
</g>
<!-- metadata_e52def8e -->
<g id="node8" class="node">
<title>metadata_e52def8e</title>
<polygon fill="#f2e9ce" stroke="transparent" points="627.5,-304.84 627.5,-323.84 708.5,-323.84 708.5,-304.84 627.5,-304.84"/>
<text text-anchor="start" x="629.5" y="-311.64" font-family="Helvetica,sans-Serif" font-weight="bold" font-style="italic" font-size="14.00">metadata</text>
<polygon fill="#f2e9ce" stroke="transparent" points="708.5,-304.84 708.5,-323.84 822.5,-323.84 822.5,-304.84 708.5,-304.84"/>
<text text-anchor="start" x="774.5" y="-310.64" font-family="Helvetica,sans-Serif" font-size="14.00">[table]</text>
<text text-anchor="start" x="629.5" y="-291.64" font-family="Helvetica,sans-Serif" font-size="14.00">name</text>
<text text-anchor="start" x="693.5" y="-291.64" font-family="Helvetica,sans-Serif" font-size="14.00"> </text>
<text text-anchor="start" x="710.5" y="-291.64" font-family="Helvetica,sans-Serif" font-size="14.00">TEXT NOT NULL</text>
<text text-anchor="start" x="629.5" y="-272.64" font-family="Helvetica,sans-Serif" font-size="14.00">&quot;value&quot;</text>
<text text-anchor="start" x="693.5" y="-272.64" font-family="Helvetica,sans-Serif" font-size="14.00"> </text>
<text text-anchor="start" x="710.5" y="-272.64" font-family="Helvetica,sans-Serif" font-size="14.00">TEXT NOT NULL</text>
<polygon fill="none" stroke="#888888" points="626,-266.34 626,-325.34 823,-325.34 823,-266.34 626,-266.34"/>
</g>
</g>
</svg>
