<?xml version="1.0" encoding="UTF-8" standalone="no"?>
<!DOCTYPE svg PUBLIC "-//W3C//DTD SVG 1.1//EN"
 "http://www.w3.org/Graphics/SVG/1.1/DTD/svg11.dtd">
<!-- Generated by graphviz version 2.43.0 (0)
 -->
<!-- Title: SchemaCrawler_Diagram Pages: 1 -->
<svg width="852pt" height="530pt"
 viewBox="0.00 0.00 852.00 530.44" xmlns="http://www.w3.org/2000/svg" xmlns:xlink="http://www.w3.org/1999/xlink">
<g id="graph0" class="graph" transform="scale(1 1) rotate(0) translate(4 526.44)">
<title>SchemaCrawler_Diagram</title>
<polygon fill="white" stroke="transparent" points="-4,4 -4,-526.44 848,-526.44 848,4 -4,4"/>
<!-- breakpoint_4e9f3850 -->
<g id="node1" class="node">
<title>breakpoint_4e9f3850</title>
<polygon fill="#f2e9ce" stroke="transparent" points="320.5,-108.94 320.5,-127.94 410.5,-127.94 410.5,-108.94 320.5,-108.94"/>
<text text-anchor="start" x="322.5" y="-115.74" font-family="Helvetica,sans-Serif" font-weight="bold" font-style="italic" font-size="14.00">breakpoint</text>
<polygon fill="#f2e9ce" stroke="transparent" points="410.5,-108.94 410.5,-127.94 551.5,-127.94 551.5,-108.94 410.5,-108.94"/>
<text text-anchor="start" x="503.5" y="-114.74" font-family="Helvetica,sans-Serif" font-size="14.00">[table]</text>
<text text-anchor="start" x="322.5" y="-96.74" font-family="Helvetica,sans-Serif" font-weight="bold" font-style="italic" font-size="14.00">id</text>
<text text-anchor="start" x="396.5" y="-95.74" font-family="Helvetica,sans-Serif" font-size="14.00"> </text>
<text text-anchor="start" x="412.5" y="-95.74" font-family="Helvetica,sans-Serif" font-size="14.00">INTEGER NOT NULL</text>
<text text-anchor="start" x="322.5" y="-76.74" font-family="Helvetica,sans-Serif" font-size="14.00">filename</text>
<text text-anchor="start" x="396.5" y="-76.74" font-family="Helvetica,sans-Serif" font-size="14.00"> </text>
<text text-anchor="start" x="412.5" y="-76.74" font-family="Helvetica,sans-Serif" font-size="14.00">TEXT NOT NULL</text>
<text text-anchor="start" x="322.5" y="-57.74" font-family="Helvetica,sans-Serif" font-size="14.00">line_num</text>
<text text-anchor="start" x="396.5" y="-57.74" font-family="Helvetica,sans-Serif" font-size="14.00"> </text>
<text text-anchor="start" x="412.5" y="-57.74" font-family="Helvetica,sans-Serif" font-size="14.00">INTEGER NOT NULL</text>
<polygon fill="none" stroke="#888888" points="319,-50.94 319,-128.94 552,-128.94 552,-50.94 319,-50.94"/>
</g>
<!-- context_38b7aa0e -->
<g id="node2" class="node">
<title>context_38b7aa0e</title>
<polygon fill="#f2e9ce" stroke="transparent" points="614.5,-235.94 614.5,-254.94 721.5,-254.94 721.5,-235.94 614.5,-235.94"/>
<text text-anchor="start" x="616.5" y="-242.74" font-family="Helvetica,sans-Serif" font-weight="bold" font-style="italic" font-size="14.00">context</text>
<polygon fill="#f2e9ce" stroke="transparent" points="721.5,-235.94 721.5,-254.94 835.5,-254.94 835.5,-235.94 721.5,-235.94"/>
<text text-anchor="start" x="787.5" y="-241.74" font-family="Helvetica,sans-Serif" font-size="14.00">[table]</text>
<text text-anchor="start" x="616.5" y="-222.74" font-family="Helvetica,sans-Serif" font-size="14.00">variable_id</text>
<text text-anchor="start" x="714.5" y="-222.74" font-family="Helvetica,sans-Serif" font-size="14.00"> </text>
<text text-anchor="start" x="723.5" y="-222.74" font-family="Helvetica,sans-Serif" font-size="14.00">INTEGER</text>
<text text-anchor="start" x="616.5" y="-203.74" font-family="Helvetica,sans-Serif" font-size="14.00">breakpoint_id</text>
<text text-anchor="start" x="714.5" y="-203.74" font-family="Helvetica,sans-Serif" font-size="14.00"> </text>
<text text-anchor="start" x="723.5" y="-203.74" font-family="Helvetica,sans-Serif" font-size="14.00">INTEGER</text>
<text text-anchor="start" x="616.5" y="-184.74" font-family="Helvetica,sans-Serif" font-size="14.00">name</text>
<text text-anchor="start" x="714.5" y="-184.74" font-family="Helvetica,sans-Serif" font-size="14.00"> </text>
<text text-anchor="start" x="723.5" y="-184.74" font-family="Helvetica,sans-Serif" font-size="14.00">TEXT NOT NULL</text>
<polygon fill="none" stroke="#888888" points="613,-177.94 613,-255.94 836,-255.94 836,-177.94 613,-177.94"/>
</g>
<!-- context_38b7aa0e&#45;&gt;breakpoint_4e9f3850 -->
<g id="edge1" class="edge">
<title>context_38b7aa0e:w&#45;&gt;breakpoint_4e9f3850:e</title>
<path fill="none" stroke="black" d="M596.31,-201.49C572.24,-181.47 595.26,-112.63 562.65,-101.48"/>
<polygon fill="black" stroke="black" points="603.97,-203.92 612.14,-211.23 608.73,-205.43 613.5,-206.94 613.5,-206.94 613.5,-206.94 608.73,-205.43 614.86,-202.65 603.97,-203.92 603.97,-203.92"/>
<ellipse fill="none" stroke="black" cx="600.16" cy="-202.71" rx="4" ry="4"/>
<polygon fill="black" stroke="black" points="552.74,-105.03 554.24,-95.15 556.21,-95.45 554.72,-105.33 552.74,-105.03"/>
<polyline fill="none" stroke="black" points="552.5,-99.94 557.44,-100.69 "/>
<polygon fill="black" stroke="black" points="557.69,-105.78 559.18,-95.89 561.16,-96.19 559.66,-106.08 557.69,-105.78"/>
<polyline fill="none" stroke="black" points="557.44,-100.69 562.39,-101.44 "/>
</g>
<!-- variable_b58546db -->
<g id="node7" class="node">
<title>variable_b58546db</title>
<polygon fill="#f2e9ce" stroke="transparent" points="311.5,-269.94 311.5,-288.94 419.5,-288.94 419.5,-269.94 311.5,-269.94"/>
<text text-anchor="start" x="313.5" y="-276.74" font-family="Helvetica,sans-Serif" font-weight="bold" font-style="italic" font-size="14.00">variable</text>
<polygon fill="#f2e9ce" stroke="transparent" points="419.5,-269.94 419.5,-288.94 560.5,-288.94 560.5,-269.94 419.5,-269.94"/>
<text text-anchor="start" x="512.5" y="-275.74" font-family="Helvetica,sans-Serif" font-size="14.00">[table]</text>
<text text-anchor="start" x="313.5" y="-257.74" font-family="Helvetica,sans-Serif" font-weight="bold" font-style="italic" font-size="14.00">id</text>
<text text-anchor="start" x="412.5" y="-256.74" font-family="Helvetica,sans-Serif" font-size="14.00"> </text>
<text text-anchor="start" x="421.5" y="-256.74" font-family="Helvetica,sans-Serif" font-size="14.00">INTEGER NOT NULL</text>
<text text-anchor="start" x="313.5" y="-237.74" font-family="Helvetica,sans-Serif" font-size="14.00">handle</text>
<text text-anchor="start" x="412.5" y="-237.74" font-family="Helvetica,sans-Serif" font-size="14.00"> </text>
<text text-anchor="start" x="421.5" y="-237.74" font-family="Helvetica,sans-Serif" font-size="14.00">INTEGER</text>
<text text-anchor="start" x="313.5" y="-218.74" font-family="Helvetica,sans-Serif" font-size="14.00">&quot;value&quot;</text>
<text text-anchor="start" x="412.5" y="-218.74" font-family="Helvetica,sans-Serif" font-size="14.00"> </text>
<text text-anchor="start" x="421.5" y="-218.74" font-family="Helvetica,sans-Serif" font-size="14.00">TEXT NOT NULL</text>
<text text-anchor="start" x="313.5" y="-199.74" font-family="Helvetica,sans-Serif" font-size="14.00">name</text>
<text text-anchor="start" x="412.5" y="-199.74" font-family="Helvetica,sans-Serif" font-size="14.00"> </text>
<text text-anchor="start" x="421.5" y="-199.74" font-family="Helvetica,sans-Serif" font-size="14.00">TEXT NOT NULL</text>
<text text-anchor="start" x="313.5" y="-180.74" font-family="Helvetica,sans-Serif" font-size="14.00">is_verilog_var</text>
<text text-anchor="start" x="412.5" y="-180.74" font-family="Helvetica,sans-Serif" font-size="14.00"> </text>
<text text-anchor="start" x="421.5" y="-180.74" font-family="Helvetica,sans-Serif" font-size="14.00">INTEGER NOT NULL</text>
<text text-anchor="start" x="313.5" y="-161.74" font-family="Helvetica,sans-Serif" font-size="14.00">is_context</text>
<text text-anchor="start" x="412.5" y="-161.74" font-family="Helvetica,sans-Serif" font-size="14.00"> </text>
<text text-anchor="start" x="421.5" y="-161.74" font-family="Helvetica,sans-Serif" font-size="14.00">INTEGER NOT NULL</text>
<polygon fill="none" stroke="#888888" points="310,-155.44 310,-290.44 561,-290.44 561,-155.44 310,-155.44"/>
</g>
<!-- context_38b7aa0e&#45;&gt;variable_b58546db -->
<g id="edge8" class="edge">
<title>context_38b7aa0e:w&#45;&gt;variable_b58546db:e</title>
<path fill="none" stroke="black" d="M596.51,-233.18C587.53,-241.08 583.32,-254.24 571.57,-259.08"/>
<polygon fill="black" stroke="black" points="604.11,-230.39 615.05,-231.17 608.81,-228.66 613.5,-226.94 613.5,-226.94 613.5,-226.94 608.81,-228.66 611.95,-222.72 604.11,-230.39 604.11,-230.39"/>
<ellipse fill="none" stroke="black" cx="600.36" cy="-231.76" rx="4" ry="4"/>
<polygon fill="black" stroke="black" points="563.39,-265.68 561.58,-255.84 563.54,-255.48 565.36,-265.31 563.39,-265.68"/>
<polyline fill="none" stroke="black" points="561.5,-260.94 566.42,-260.03 "/>
<polygon fill="black" stroke="black" points="568.31,-264.77 566.49,-254.93 568.46,-254.57 570.28,-264.4 568.31,-264.77"/>
<polyline fill="none" stroke="black" points="566.42,-260.03 571.33,-259.12 "/>
</g>
<!-- instance_set_d40da217 -->
<g id="node3" class="node">
<title>instance_set_d40da217</title>
<polygon fill="#f2e9ce" stroke="transparent" points="638.5,-62.94 638.5,-81.94 745.5,-81.94 745.5,-62.94 638.5,-62.94"/>
<text text-anchor="start" x="640.5" y="-69.74" font-family="Helvetica,sans-Serif" font-weight="bold" font-style="italic" font-size="14.00">instance_set</text>
<polygon fill="#f2e9ce" stroke="transparent" points="745.5,-62.94 745.5,-81.94 811.5,-81.94 811.5,-62.94 745.5,-62.94"/>
<text text-anchor="start" x="763.5" y="-68.74" font-family="Helvetica,sans-Serif" font-size="14.00">[table]</text>
<text text-anchor="start" x="640.5" y="-49.74" font-family="Helvetica,sans-Serif" font-size="14.00">instance_id</text>
<text text-anchor="start" x="738.5" y="-49.74" font-family="Helvetica,sans-Serif" font-size="14.00"> </text>
<text text-anchor="start" x="747.5" y="-49.74" font-family="Helvetica,sans-Serif" font-size="14.00">INTEGER</text>
<text text-anchor="start" x="640.5" y="-30.74" font-family="Helvetica,sans-Serif" font-size="14.00">breakpoint_id</text>
<text text-anchor="start" x="738.5" y="-30.74" font-family="Helvetica,sans-Serif" font-size="14.00"> </text>
<text text-anchor="start" x="747.5" y="-30.74" font-family="Helvetica,sans-Serif" font-size="14.00">INTEGER</text>
<polygon fill="none" stroke="#888888" points="637,-24.44 637,-83.44 812,-83.44 812,-24.44 637,-24.44"/>
</g>
<!-- instance_set_d40da217&#45;&gt;breakpoint_4e9f3850 -->
<g id="edge2" class="edge">
<title>instance_set_d40da217:w&#45;&gt;breakpoint_4e9f3850:e</title>
<path fill="none" stroke="black" d="M619.68,-37.87C594.07,-50.8 593.17,-91.61 562.5,-98.84"/>
<polygon fill="black" stroke="black" points="627.73,-36.1 638.47,-38.34 632.62,-35.02 637.5,-33.94 637.5,-33.94 637.5,-33.94 632.62,-35.02 636.53,-29.55 627.73,-36.1 627.73,-36.1"/>
<ellipse fill="none" stroke="black" cx="623.83" cy="-36.96" rx="4" ry="4"/>
<polygon fill="black" stroke="black" points="554.04,-104.8 552.95,-94.86 554.94,-94.64 556.03,-104.58 554.04,-104.8"/>
<polyline fill="none" stroke="black" points="552.5,-99.94 557.47,-99.39 "/>
<polygon fill="black" stroke="black" points="559.01,-104.26 557.92,-94.32 559.91,-94.1 561,-104.04 559.01,-104.26"/>
<polyline fill="none" stroke="black" points="557.47,-99.39 562.44,-98.85 "/>
</g>
<!-- instance_211708f4 -->
<g id="node6" class="node">
<title>instance_211708f4</title>
<polygon fill="#f2e9ce" stroke="transparent" points="9,-375.94 9,-394.94 116,-394.94 116,-375.94 9,-375.94"/>
<text text-anchor="start" x="11" y="-382.74" font-family="Helvetica,sans-Serif" font-weight="bold" font-style="italic" font-size="14.00">instance</text>
<polygon fill="#f2e9ce" stroke="transparent" points="116,-375.94 116,-394.94 257,-394.94 257,-375.94 116,-375.94"/>
<text text-anchor="start" x="209" y="-381.74" font-family="Helvetica,sans-Serif" font-size="14.00">[table]</text>
<text text-anchor="start" x="11" y="-363.74" font-family="Helvetica,sans-Serif" font-weight="bold" font-style="italic" font-size="14.00">id</text>
<text text-anchor="start" x="109" y="-362.74" font-family="Helvetica,sans-Serif" font-size="14.00"> </text>
<text text-anchor="start" x="118" y="-362.74" font-family="Helvetica,sans-Serif" font-size="14.00">INTEGER NOT NULL</text>
<text text-anchor="start" x="11" y="-343.74" font-family="Helvetica,sans-Serif" font-size="14.00">handle_name</text>
<text text-anchor="start" x="109" y="-343.74" font-family="Helvetica,sans-Serif" font-size="14.00"> </text>
<text text-anchor="start" x="118" y="-343.74" font-family="Helvetica,sans-Serif" font-size="14.00">TEXT NOT NULL</text>
<polygon fill="none" stroke="#888888" points="8,-337.44 8,-396.44 258,-396.44 258,-337.44 8,-337.44"/>
</g>
<!-- instance_set_d40da217&#45;&gt;instance_211708f4 -->
<g id="edge4" class="edge">
<title>instance_set_d40da217:w&#45;&gt;instance_211708f4:e</title>
<path fill="none" stroke="black" d="M619.56,-51.38C602.19,-48.09 592.96,-40.53 569,-37.94 451.02,-25.18 391.31,40.19 302,-37.94 249.46,-83.9 323.28,-338.14 268.02,-363.85"/>
<polygon fill="black" stroke="black" points="627.54,-52.07 637.11,-57.42 632.52,-52.51 637.5,-52.94 637.5,-52.94 637.5,-52.94 632.52,-52.51 637.89,-48.46 627.54,-52.07 627.54,-52.07"/>
<ellipse fill="none" stroke="black" cx="623.55" cy="-51.73" rx="4" ry="4"/>
<polygon fill="black" stroke="black" points="260,-370.63 257.95,-360.84 259.91,-360.43 261.96,-370.22 260,-370.63"/>
<polyline fill="none" stroke="black" points="258,-365.94 262.89,-364.92 "/>
<polygon fill="black" stroke="black" points="264.9,-369.61 262.85,-359.82 264.81,-359.41 266.85,-369.2 264.9,-369.61"/>
<polyline fill="none" stroke="black" points="262.89,-364.92 267.79,-363.89 "/>
</g>
<!-- connection_d1c4f33d -->
<g id="node4" class="node">
<title>connection_d1c4f33d</title>
<polygon fill="#f2e9ce" stroke="transparent" points="328.5,-497.94 328.5,-516.94 428.5,-516.94 428.5,-497.94 328.5,-497.94"/>
<text text-anchor="start" x="330.5" y="-504.74" font-family="Helvetica,sans-Serif" font-weight="bold" font-style="italic" font-size="14.00">connection</text>
<polygon fill="#f2e9ce" stroke="transparent" points="428.5,-497.94 428.5,-516.94 542.5,-516.94 542.5,-497.94 428.5,-497.94"/>
<text text-anchor="start" x="494.5" y="-503.74" font-family="Helvetica,sans-Serif" font-size="14.00">[table]</text>
<text text-anchor="start" x="330.5" y="-484.74" font-family="Helvetica,sans-Serif" font-size="14.00">handle_from</text>
<text text-anchor="start" x="421.5" y="-484.74" font-family="Helvetica,sans-Serif" font-size="14.00"> </text>
<text text-anchor="start" x="430.5" y="-484.74" font-family="Helvetica,sans-Serif" font-size="14.00">INTEGER</text>
<text text-anchor="start" x="330.5" y="-465.74" font-family="Helvetica,sans-Serif" font-size="14.00">var_from</text>
<text text-anchor="start" x="421.5" y="-465.74" font-family="Helvetica,sans-Serif" font-size="14.00"> </text>
<text text-anchor="start" x="430.5" y="-465.74" font-family="Helvetica,sans-Serif" font-size="14.00">TEXT NOT NULL</text>
<text text-anchor="start" x="330.5" y="-446.74" font-family="Helvetica,sans-Serif" font-size="14.00">handle_to</text>
<text text-anchor="start" x="421.5" y="-446.74" font-family="Helvetica,sans-Serif" font-size="14.00"> </text>
<text text-anchor="start" x="430.5" y="-446.74" font-family="Helvetica,sans-Serif" font-size="14.00">INTEGER</text>
<text text-anchor="start" x="330.5" y="-427.74" font-family="Helvetica,sans-Serif" font-size="14.00">var_to</text>
<text text-anchor="start" x="421.5" y="-427.74" font-family="Helvetica,sans-Serif" font-size="14.00"> </text>
<text text-anchor="start" x="430.5" y="-427.74" font-family="Helvetica,sans-Serif" font-size="14.00">TEXT NOT NULL</text>
<polygon fill="none" stroke="#888888" points="327.5,-421.44 327.5,-518.44 543.5,-518.44 543.5,-421.44 327.5,-421.44"/>
</g>
<!-- connection_d1c4f33d&#45;&gt;instance_211708f4 -->
<g id="edge6" class="edge">
<title>connection_d1c4f33d:w&#45;&gt;instance_211708f4:e</title>
<path fill="none" stroke="black" d="M309.94,-484.27C278.53,-463.34 308.68,-378.7 268.12,-367.23"/>
<polygon fill="black" stroke="black" points="317.84,-486.37 326.34,-493.29 322.67,-487.66 327.5,-488.94 327.5,-488.94 327.5,-488.94 322.67,-487.66 328.66,-484.59 317.84,-486.37 317.84,-486.37"/>
<ellipse fill="none" stroke="black" cx="313.97" cy="-485.34" rx="4" ry="4"/>
<polygon fill="black" stroke="black" points="258.36,-371.03 259.62,-361.11 261.61,-361.36 260.34,-371.28 258.36,-371.03"/>
<polyline fill="none" stroke="black" points="258,-365.94 262.96,-366.57 "/>
<polygon fill="black" stroke="black" points="263.32,-371.66 264.58,-361.74 266.57,-361.99 265.3,-371.91 263.32,-371.66"/>
<polyline fill="none" stroke="black" points="262.96,-366.57 267.92,-367.21 "/>
</g>
<!-- connection_d1c4f33d&#45;&gt;instance_211708f4 -->
<g id="edge7" class="edge">
<title>connection_d1c4f33d:w&#45;&gt;instance_211708f4:e</title>
<path fill="none" stroke="black" d="M310.1,-444.69C287.93,-428.02 296.89,-376.89 268.19,-367.45"/>
<polygon fill="black" stroke="black" points="317.93,-447.05 326.2,-454.25 322.71,-448.5 327.5,-449.94 327.5,-449.94 327.5,-449.94 322.71,-448.5 328.8,-445.63 317.93,-447.05 317.93,-447.05"/>
<ellipse fill="none" stroke="black" cx="314.1" cy="-445.89" rx="4" ry="4"/>
<polygon fill="black" stroke="black" points="258.26,-371.03 259.72,-361.14 261.7,-361.43 260.24,-371.33 258.26,-371.03"/>
<polyline fill="none" stroke="black" points="258,-365.94 262.95,-366.67 "/>
<polygon fill="black" stroke="black" points="263.2,-371.77 264.67,-361.87 266.65,-362.17 265.18,-372.06 263.2,-371.77"/>
<polyline fill="none" stroke="black" points="262.95,-366.67 267.89,-367.4 "/>
</g>
<!-- hierarchy_7e130694 -->
<g id="node5" class="node">
<title>hierarchy_7e130694</title>
<polygon fill="#f2e9ce" stroke="transparent" points="322.5,-374.94 322.5,-393.94 435.5,-393.94 435.5,-374.94 322.5,-374.94"/>
<text text-anchor="start" x="324.5" y="-381.74" font-family="Helvetica,sans-Serif" font-weight="bold" font-style="italic" font-size="14.00">hierarchy</text>
<polygon fill="#f2e9ce" stroke="transparent" points="435.5,-374.94 435.5,-393.94 549.5,-393.94 549.5,-374.94 435.5,-374.94"/>
<text text-anchor="start" x="501.5" y="-380.74" font-family="Helvetica,sans-Serif" font-size="14.00">[table]</text>
<text text-anchor="start" x="324.5" y="-361.74" font-family="Helvetica,sans-Serif" font-size="14.00">parent_handle</text>
<text text-anchor="start" x="428.5" y="-361.74" font-family="Helvetica,sans-Serif" font-size="14.00"> </text>
<text text-anchor="start" x="437.5" y="-361.74" font-family="Helvetica,sans-Serif" font-size="14.00">INTEGER</text>
<text text-anchor="start" x="324.5" y="-342.74" font-family="Helvetica,sans-Serif" font-size="14.00">name</text>
<text text-anchor="start" x="428.5" y="-342.74" font-family="Helvetica,sans-Serif" font-size="14.00"> </text>
<text text-anchor="start" x="437.5" y="-342.74" font-family="Helvetica,sans-Serif" font-size="14.00">TEXT NOT NULL</text>
<text text-anchor="start" x="324.5" y="-323.74" font-family="Helvetica,sans-Serif" font-size="14.00">handle</text>
<text text-anchor="start" x="428.5" y="-323.74" font-family="Helvetica,sans-Serif" font-size="14.00"> </text>
<text text-anchor="start" x="437.5" y="-323.74" font-family="Helvetica,sans-Serif" font-size="14.00">INTEGER</text>
<polygon fill="none" stroke="#888888" points="321,-316.94 321,-394.94 550,-394.94 550,-316.94 321,-316.94"/>
</g>
<!-- hierarchy_7e130694&#45;&gt;instance_211708f4 -->
<g id="edge3" class="edge">
<title>hierarchy_7e130694:w&#45;&gt;instance_211708f4:e</title>
<path fill="none" stroke="black" d="M303.17,-365.94C290.92,-365.94 282.47,-365.94 268.26,-365.94"/>
<polygon fill="black" stroke="black" points="311.5,-365.94 321.5,-370.44 316.5,-365.94 321.5,-365.94 321.5,-365.94 321.5,-365.94 316.5,-365.94 321.5,-361.44 311.5,-365.94 311.5,-365.94"/>
<ellipse fill="none" stroke="black" cx="307.5" cy="-365.94" rx="4" ry="4"/>
<polygon fill="black" stroke="black" points="259,-370.94 259,-360.94 261,-360.94 261,-370.94 259,-370.94"/>
<polyline fill="none" stroke="black" points="258,-365.94 263,-365.94 "/>
<polygon fill="black" stroke="black" points="264,-370.94 264,-360.94 266,-360.94 266,-370.94 264,-370.94"/>
<polyline fill="none" stroke="black" points="263,-365.94 268,-365.94 "/>
</g>
<!-- variable_b58546db&#45;&gt;instance_211708f4 -->
<g id="edge5" class="edge">
<title>variable_b58546db:w&#45;&gt;instance_211708f4:e</title>
<path fill="none" stroke="black" d="M293.14,-247.59C267.89,-270.05 303.96,-352.36 268.08,-364.45"/>
<polygon fill="black" stroke="black" points="300.99,-245.04 311.89,-246.22 305.75,-243.49 310.5,-241.94 310.5,-241.94 310.5,-241.94 305.75,-243.49 309.11,-237.66 300.99,-245.04 300.99,-245.04"/>
<ellipse fill="none" stroke="black" cx="297.19" cy="-246.28" rx="4" ry="4"/>
<polygon fill="black" stroke="black" points="259.72,-370.74 258.26,-360.85 260.24,-360.56 261.7,-370.45 259.72,-370.74"/>
<polyline fill="none" stroke="black" points="258,-365.94 262.95,-365.21 "/>
<polygon fill="black" stroke="black" points="264.67,-370.01 263.21,-360.12 265.18,-359.83 266.64,-369.72 264.67,-370.01"/>
<polyline fill="none" stroke="black" points="262.95,-365.21 267.89,-364.48 "/>
</g>
<!-- metadata_e52def8e -->
<g id="node8" class="node">
<title>metadata_e52def8e</title>
<polygon fill="#f2e9ce" stroke="transparent" points="627.5,-320.94 627.5,-339.94 708.5,-339.94 708.5,-320.94 627.5,-320.94"/>
<text text-anchor="start" x="629.5" y="-327.74" font-family="Helvetica,sans-Serif" font-weight="bold" font-style="italic" font-size="14.00">metadata</text>
<polygon fill="#f2e9ce" stroke="transparent" points="708.5,-320.94 708.5,-339.94 822.5,-339.94 822.5,-320.94 708.5,-320.94"/>
<text text-anchor="start" x="774.5" y="-326.74" font-family="Helvetica,sans-Serif" font-size="14.00">[table]</text>
<text text-anchor="start" x="629.5" y="-307.74" font-family="Helvetica,sans-Serif" font-size="14.00">name</text>
<text text-anchor="start" x="693.5" y="-307.74" font-family="Helvetica,sans-Serif" font-size="14.00"> </text>
<text text-anchor="start" x="710.5" y="-307.74" font-family="Helvetica,sans-Serif" font-size="14.00">TEXT NOT NULL</text>
<text text-anchor="start" x="629.5" y="-288.74" font-family="Helvetica,sans-Serif" font-size="14.00">&quot;value&quot;</text>
<text text-anchor="start" x="693.5" y="-288.74" font-family="Helvetica,sans-Serif" font-size="14.00"> </text>
<text text-anchor="start" x="710.5" y="-288.74" font-family="Helvetica,sans-Serif" font-size="14.00">TEXT NOT NULL</text>
<polygon fill="none" stroke="#888888" points="626,-282.44 626,-341.44 823,-341.44 823,-282.44 626,-282.44"/>
</g>
</g>
</svg>
