<?xml version="1.0" encoding="UTF-8" standalone="no"?>
<!DOCTYPE svg PUBLIC "-//W3C//DTD SVG 1.1//EN"
 "http://www.w3.org/Graphics/SVG/1.1/DTD/svg11.dtd">
<!-- Generated by graphviz version 2.43.0 (0)
 -->
<!-- Title: SchemaCrawler_Diagram Pages: 1 -->
<svg width="899pt" height="558pt"
 viewBox="0.00 0.00 899.00 557.63" xmlns="http://www.w3.org/2000/svg" xmlns:xlink="http://www.w3.org/1999/xlink">
<g id="graph0" class="graph" transform="scale(1 1) rotate(0) translate(4 553.63)">
<title>SchemaCrawler_Diagram</title>
<polygon fill="white" stroke="transparent" points="-4,4 -4,-553.63 895,-553.63 895,4 -4,4"/>
<!-- breakpoint_4e9f3850 -->
<g id="node1" class="node">
<title>breakpoint_4e9f3850</title>
<polygon fill="#f2e9ce" stroke="transparent" points="313.5,-382.63 313.5,-401.63 416.5,-401.63 416.5,-382.63 313.5,-382.63"/>
<text text-anchor="start" x="315.5" y="-389.43" font-family="Helvetica,sans-Serif" font-weight="bold" font-style="italic" font-size="14.00">breakpoint</text>
<polygon fill="#f2e9ce" stroke="transparent" points="416.5,-382.63 416.5,-401.63 557.5,-401.63 557.5,-382.63 416.5,-382.63"/>
<text text-anchor="start" x="509.5" y="-388.43" font-family="Helvetica,sans-Serif" font-size="14.00">[table]</text>
<text text-anchor="start" x="315.5" y="-370.43" font-family="Helvetica,sans-Serif" font-weight="bold" font-style="italic" font-size="14.00">id</text>
<text text-anchor="start" x="409.5" y="-369.43" font-family="Helvetica,sans-Serif" font-size="14.00"> </text>
<text text-anchor="start" x="418.5" y="-369.43" font-family="Helvetica,sans-Serif" font-size="14.00">INTEGER NOT NULL</text>
<text text-anchor="start" x="315.5" y="-350.43" font-family="Helvetica,sans-Serif" font-size="14.00">filename</text>
<text text-anchor="start" x="409.5" y="-350.43" font-family="Helvetica,sans-Serif" font-size="14.00"> </text>
<text text-anchor="start" x="418.5" y="-350.43" font-family="Helvetica,sans-Serif" font-size="14.00">TEXT NOT NULL</text>
<text text-anchor="start" x="315.5" y="-331.43" font-family="Helvetica,sans-Serif" font-size="14.00">line_num</text>
<text text-anchor="start" x="409.5" y="-331.43" font-family="Helvetica,sans-Serif" font-size="14.00"> </text>
<text text-anchor="start" x="418.5" y="-331.43" font-family="Helvetica,sans-Serif" font-size="14.00">INTEGER NOT NULL</text>
<text text-anchor="start" x="315.5" y="-312.43" font-family="Helvetica,sans-Serif" font-size="14.00">column_num</text>
<text text-anchor="start" x="409.5" y="-312.43" font-family="Helvetica,sans-Serif" font-size="14.00"> </text>
<text text-anchor="start" x="418.5" y="-312.43" font-family="Helvetica,sans-Serif" font-size="14.00">INTEGER NOT NULL</text>
<polygon fill="none" stroke="#888888" points="312.5,-306.13 312.5,-403.13 558.5,-403.13 558.5,-306.13 312.5,-306.13"/>
</g>
<!-- context_38b7aa0e -->
<g id="node2" class="node">
<title>context_38b7aa0e</title>
<polygon fill="#f2e9ce" stroke="transparent" points="638,-288.63 638,-307.63 745,-307.63 745,-288.63 638,-288.63"/>
<text text-anchor="start" x="640" y="-295.43" font-family="Helvetica,sans-Serif" font-weight="bold" font-style="italic" font-size="14.00">context</text>
<polygon fill="#f2e9ce" stroke="transparent" points="745,-288.63 745,-307.63 859,-307.63 859,-288.63 745,-288.63"/>
<text text-anchor="start" x="811" y="-294.43" font-family="Helvetica,sans-Serif" font-size="14.00">[table]</text>
<text text-anchor="start" x="640" y="-275.43" font-family="Helvetica,sans-Serif" font-size="14.00">variable_id</text>
<text text-anchor="start" x="738" y="-275.43" font-family="Helvetica,sans-Serif" font-size="14.00"> </text>
<text text-anchor="start" x="747" y="-275.43" font-family="Helvetica,sans-Serif" font-size="14.00">INTEGER</text>
<text text-anchor="start" x="640" y="-256.43" font-family="Helvetica,sans-Serif" font-size="14.00">breakpoint_id</text>
<text text-anchor="start" x="738" y="-256.43" font-family="Helvetica,sans-Serif" font-size="14.00"> </text>
<text text-anchor="start" x="747" y="-256.43" font-family="Helvetica,sans-Serif" font-size="14.00">INTEGER</text>
<text text-anchor="start" x="640" y="-237.43" font-family="Helvetica,sans-Serif" font-size="14.00">name</text>
<text text-anchor="start" x="738" y="-237.43" font-family="Helvetica,sans-Serif" font-size="14.00"> </text>
<text text-anchor="start" x="747" y="-237.43" font-family="Helvetica,sans-Serif" font-size="14.00">TEXT NOT NULL</text>
<polygon fill="none" stroke="#888888" points="636.5,-230.63 636.5,-308.63 859.5,-308.63 859.5,-230.63 636.5,-230.63"/>
</g>
<!-- context_38b7aa0e&#45;&gt;breakpoint_4e9f3850 -->
<g id="edge1" class="edge">
<title>context_38b7aa0e:w&#45;&gt;breakpoint_4e9f3850:e</title>
<path fill="none" stroke="black" d="M619.4,-263.96C586.85,-283.36 609.23,-361.8 568.53,-372.43"/>
<polygon fill="black" stroke="black" points="627.29,-262.02 638.08,-264 632.14,-260.82 637,-259.63 637,-259.63 637,-259.63 632.14,-260.82 635.92,-255.26 627.29,-262.02 627.29,-262.02"/>
<ellipse fill="none" stroke="black" cx="623.41" cy="-262.97" rx="4" ry="4"/>
<polygon fill="black" stroke="black" points="560.09,-378.47 558.9,-368.54 560.89,-368.31 562.07,-378.24 560.09,-378.47"/>
<polyline fill="none" stroke="black" points="558.5,-373.63 563.46,-373.03 "/>
<polygon fill="black" stroke="black" points="565.05,-377.88 563.87,-367.95 565.85,-367.71 567.04,-377.64 565.05,-377.88"/>
<polyline fill="none" stroke="black" points="563.46,-373.03 568.43,-372.44 "/>
</g>
<!-- variable_b58546db -->
<g id="node8" class="node">
<title>variable_b58546db</title>
<polygon fill="#f2e9ce" stroke="transparent" points="311.5,-259.63 311.5,-278.63 419.5,-278.63 419.5,-259.63 311.5,-259.63"/>
<text text-anchor="start" x="313.5" y="-266.43" font-family="Helvetica,sans-Serif" font-weight="bold" font-style="italic" font-size="14.00">variable</text>
<polygon fill="#f2e9ce" stroke="transparent" points="419.5,-259.63 419.5,-278.63 560.5,-278.63 560.5,-259.63 419.5,-259.63"/>
<text text-anchor="start" x="512.5" y="-265.43" font-family="Helvetica,sans-Serif" font-size="14.00">[table]</text>
<text text-anchor="start" x="313.5" y="-247.43" font-family="Helvetica,sans-Serif" font-weight="bold" font-style="italic" font-size="14.00">id</text>
<text text-anchor="start" x="412.5" y="-246.43" font-family="Helvetica,sans-Serif" font-size="14.00"> </text>
<text text-anchor="start" x="421.5" y="-246.43" font-family="Helvetica,sans-Serif" font-size="14.00">INTEGER NOT NULL</text>
<text text-anchor="start" x="313.5" y="-227.43" font-family="Helvetica,sans-Serif" font-size="14.00">handle</text>
<text text-anchor="start" x="412.5" y="-227.43" font-family="Helvetica,sans-Serif" font-size="14.00"> </text>
<text text-anchor="start" x="421.5" y="-227.43" font-family="Helvetica,sans-Serif" font-size="14.00">INTEGER</text>
<text text-anchor="start" x="313.5" y="-208.43" font-family="Helvetica,sans-Serif" font-size="14.00">&quot;value&quot;</text>
<text text-anchor="start" x="412.5" y="-208.43" font-family="Helvetica,sans-Serif" font-size="14.00"> </text>
<text text-anchor="start" x="421.5" y="-208.43" font-family="Helvetica,sans-Serif" font-size="14.00">TEXT NOT NULL</text>
<text text-anchor="start" x="313.5" y="-189.43" font-family="Helvetica,sans-Serif" font-size="14.00">is_verilog_var</text>
<text text-anchor="start" x="412.5" y="-189.43" font-family="Helvetica,sans-Serif" font-size="14.00"> </text>
<text text-anchor="start" x="421.5" y="-189.43" font-family="Helvetica,sans-Serif" font-size="14.00">INTEGER NOT NULL</text>
<polygon fill="none" stroke="#888888" points="310,-183.13 310,-280.13 561,-280.13 561,-183.13 310,-183.13"/>
</g>
<!-- context_38b7aa0e&#45;&gt;variable_b58546db -->
<g id="edge9" class="edge">
<title>context_38b7aa0e:w&#45;&gt;variable_b58546db:e</title>
<path fill="none" stroke="black" d="M619.16,-276.74C601.09,-270.35 592.7,-255.28 571.71,-251.5"/>
<polygon fill="black" stroke="black" points="627.13,-278.03 636.28,-284.07 632.06,-278.83 637,-279.63 637,-279.63 637,-279.63 632.06,-278.83 637.72,-275.18 627.13,-278.03 627.13,-278.03"/>
<ellipse fill="none" stroke="black" cx="623.18" cy="-277.39" rx="4" ry="4"/>
<polygon fill="black" stroke="black" points="562.07,-255.69 562.92,-245.73 564.91,-245.9 564.06,-255.86 562.07,-255.69"/>
<polyline fill="none" stroke="black" points="561.5,-250.63 566.48,-251.05 "/>
<polygon fill="black" stroke="black" points="567.05,-256.12 567.9,-246.15 569.9,-246.32 569.05,-256.29 567.05,-256.12"/>
<polyline fill="none" stroke="black" points="566.48,-251.05 571.46,-251.48 "/>
</g>
<!-- instance_set_d40da217 -->
<g id="node3" class="node">
<title>instance_set_d40da217</title>
<polygon fill="#f2e9ce" stroke="transparent" points="662,-423.63 662,-442.63 769,-442.63 769,-423.63 662,-423.63"/>
<text text-anchor="start" x="664" y="-430.43" font-family="Helvetica,sans-Serif" font-weight="bold" font-style="italic" font-size="14.00">instance_set</text>
<polygon fill="#f2e9ce" stroke="transparent" points="769,-423.63 769,-442.63 835,-442.63 835,-423.63 769,-423.63"/>
<text text-anchor="start" x="787" y="-429.43" font-family="Helvetica,sans-Serif" font-size="14.00">[table]</text>
<text text-anchor="start" x="664" y="-410.43" font-family="Helvetica,sans-Serif" font-size="14.00">instance_id</text>
<text text-anchor="start" x="762" y="-410.43" font-family="Helvetica,sans-Serif" font-size="14.00"> </text>
<text text-anchor="start" x="771" y="-410.43" font-family="Helvetica,sans-Serif" font-size="14.00">INTEGER</text>
<text text-anchor="start" x="664" y="-391.43" font-family="Helvetica,sans-Serif" font-size="14.00">breakpoint_id</text>
<text text-anchor="start" x="762" y="-391.43" font-family="Helvetica,sans-Serif" font-size="14.00"> </text>
<text text-anchor="start" x="771" y="-391.43" font-family="Helvetica,sans-Serif" font-size="14.00">INTEGER</text>
<polygon fill="none" stroke="#888888" points="660.5,-385.13 660.5,-444.13 835.5,-444.13 835.5,-385.13 660.5,-385.13"/>
</g>
<!-- instance_set_d40da217&#45;&gt;breakpoint_4e9f3850 -->
<g id="edge2" class="edge">
<title>instance_set_d40da217:w&#45;&gt;breakpoint_4e9f3850:e</title>
<path fill="none" stroke="black" d="M642.93,-393.44C613.85,-389.39 600.72,-376.3 568.6,-373.98"/>
<polygon fill="black" stroke="black" points="651.02,-393.97 660.7,-399.12 656.01,-394.3 661,-394.63 661,-394.63 661,-394.63 656.01,-394.3 661.3,-390.14 651.02,-393.97 651.02,-393.97"/>
<ellipse fill="none" stroke="black" cx="647.03" cy="-393.71" rx="4" ry="4"/>
<polygon fill="black" stroke="black" points="559.32,-378.66 559.67,-368.66 561.67,-368.73 561.32,-378.73 559.32,-378.66"/>
<polyline fill="none" stroke="black" points="558.5,-373.63 563.5,-373.8 "/>
<polygon fill="black" stroke="black" points="564.32,-378.83 564.67,-368.84 566.67,-368.91 566.32,-378.9 564.32,-378.83"/>
<polyline fill="none" stroke="black" points="563.5,-373.8 568.49,-373.98 "/>
</g>
<!-- instance_211708f4 -->
<g id="node7" class="node">
<title>instance_211708f4</title>
<polygon fill="#f2e9ce" stroke="transparent" points="9,-188.63 9,-207.63 116,-207.63 116,-188.63 9,-188.63"/>
<text text-anchor="start" x="11" y="-195.43" font-family="Helvetica,sans-Serif" font-weight="bold" font-style="italic" font-size="14.00">instance</text>
<polygon fill="#f2e9ce" stroke="transparent" points="116,-188.63 116,-207.63 257,-207.63 257,-188.63 116,-188.63"/>
<text text-anchor="start" x="209" y="-194.43" font-family="Helvetica,sans-Serif" font-size="14.00">[table]</text>
<text text-anchor="start" x="11" y="-176.43" font-family="Helvetica,sans-Serif" font-weight="bold" font-style="italic" font-size="14.00">id</text>
<text text-anchor="start" x="109" y="-175.43" font-family="Helvetica,sans-Serif" font-size="14.00"> </text>
<text text-anchor="start" x="118" y="-175.43" font-family="Helvetica,sans-Serif" font-size="14.00">INTEGER NOT NULL</text>
<text text-anchor="start" x="11" y="-156.43" font-family="Helvetica,sans-Serif" font-size="14.00">handle_name</text>
<text text-anchor="start" x="109" y="-156.43" font-family="Helvetica,sans-Serif" font-size="14.00"> </text>
<text text-anchor="start" x="118" y="-156.43" font-family="Helvetica,sans-Serif" font-size="14.00">TEXT NOT NULL</text>
<polygon fill="none" stroke="#888888" points="8,-150.13 8,-209.13 258,-209.13 258,-150.13 8,-150.13"/>
</g>
<!-- instance_set_d40da217&#45;&gt;instance_211708f4 -->
<g id="edge5" class="edge">
<title>instance_set_d40da217:w&#45;&gt;instance_211708f4:e</title>
<path fill="none" stroke="black" d="M642.8,-414.33C552.16,-420.52 359.13,-464.17 302,-416.63 222.14,-350.17 355.84,-190.08 268.16,-179.21"/>
<polygon fill="black" stroke="black" points="651.01,-414.01 661.17,-418.12 656,-413.82 661,-413.63 661,-413.63 661,-413.63 656,-413.82 660.83,-409.13 651.01,-414.01 651.01,-414.01"/>
<ellipse fill="none" stroke="black" cx="647.01" cy="-414.17" rx="4" ry="4"/>
<polygon fill="black" stroke="black" points="258.71,-183.68 259.28,-173.69 261.28,-173.81 260.71,-183.79 258.71,-183.68"/>
<polyline fill="none" stroke="black" points="258,-178.63 262.99,-178.91 "/>
<polygon fill="black" stroke="black" points="263.7,-183.96 264.28,-173.98 266.27,-174.09 265.7,-184.08 263.7,-183.96"/>
<polyline fill="none" stroke="black" points="262.99,-178.91 267.98,-179.2 "/>
</g>
<!-- connection_d1c4f33d -->
<g id="node4" class="node">
<title>connection_d1c4f33d</title>
<polygon fill="#f2e9ce" stroke="transparent" points="328.5,-136.63 328.5,-155.63 428.5,-155.63 428.5,-136.63 328.5,-136.63"/>
<text text-anchor="start" x="330.5" y="-143.43" font-family="Helvetica,sans-Serif" font-weight="bold" font-style="italic" font-size="14.00">connection</text>
<polygon fill="#f2e9ce" stroke="transparent" points="428.5,-136.63 428.5,-155.63 542.5,-155.63 542.5,-136.63 428.5,-136.63"/>
<text text-anchor="start" x="494.5" y="-142.43" font-family="Helvetica,sans-Serif" font-size="14.00">[table]</text>
<text text-anchor="start" x="330.5" y="-123.43" font-family="Helvetica,sans-Serif" font-size="14.00">handle_from</text>
<text text-anchor="start" x="421.5" y="-123.43" font-family="Helvetica,sans-Serif" font-size="14.00"> </text>
<text text-anchor="start" x="430.5" y="-123.43" font-family="Helvetica,sans-Serif" font-size="14.00">INTEGER</text>
<text text-anchor="start" x="330.5" y="-104.43" font-family="Helvetica,sans-Serif" font-size="14.00">var_from</text>
<text text-anchor="start" x="421.5" y="-104.43" font-family="Helvetica,sans-Serif" font-size="14.00"> </text>
<text text-anchor="start" x="430.5" y="-104.43" font-family="Helvetica,sans-Serif" font-size="14.00">TEXT NOT NULL</text>
<text text-anchor="start" x="330.5" y="-85.43" font-family="Helvetica,sans-Serif" font-size="14.00">handle_to</text>
<text text-anchor="start" x="421.5" y="-85.43" font-family="Helvetica,sans-Serif" font-size="14.00"> </text>
<text text-anchor="start" x="430.5" y="-85.43" font-family="Helvetica,sans-Serif" font-size="14.00">INTEGER</text>
<text text-anchor="start" x="330.5" y="-66.43" font-family="Helvetica,sans-Serif" font-size="14.00">var_to</text>
<text text-anchor="start" x="421.5" y="-66.43" font-family="Helvetica,sans-Serif" font-size="14.00"> </text>
<text text-anchor="start" x="430.5" y="-66.43" font-family="Helvetica,sans-Serif" font-size="14.00">TEXT NOT NULL</text>
<polygon fill="none" stroke="#888888" points="327.5,-60.13 327.5,-157.13 543.5,-157.13 543.5,-60.13 327.5,-60.13"/>
</g>
<!-- connection_d1c4f33d&#45;&gt;instance_211708f4 -->
<g id="edge7" class="edge">
<title>connection_d1c4f33d:w&#45;&gt;instance_211708f4:e</title>
<path fill="none" stroke="black" d="M309.86,-132.52C292.62,-143.74 289.56,-170.85 268.03,-177.26"/>
<polygon fill="black" stroke="black" points="317.86,-130.3 328.7,-131.96 322.68,-128.96 327.5,-127.63 327.5,-127.63 327.5,-127.63 322.68,-128.96 326.3,-123.29 317.86,-130.3 317.86,-130.3"/>
<ellipse fill="none" stroke="black" cx="314.01" cy="-131.37" rx="4" ry="4"/>
<polygon fill="black" stroke="black" points="259.67,-183.44 258.31,-173.54 260.3,-173.27 261.65,-183.17 259.67,-183.44"/>
<polyline fill="none" stroke="black" points="258,-178.63 262.95,-177.95 "/>
<polygon fill="black" stroke="black" points="264.62,-182.77 263.27,-172.86 265.25,-172.59 266.6,-182.5 264.62,-182.77"/>
<polyline fill="none" stroke="black" points="262.95,-177.95 267.91,-177.27 "/>
</g>
<!-- connection_d1c4f33d&#45;&gt;instance_211708f4 -->
<g id="edge8" class="edge">
<title>connection_d1c4f33d:w&#45;&gt;instance_211708f4:e</title>
<path fill="none" stroke="black" d="M309.89,-93.99C286.81,-111.62 298.41,-167.27 268.23,-177.13"/>
<polygon fill="black" stroke="black" points="317.93,-91.54 328.81,-92.93 322.72,-90.08 327.5,-88.63 327.5,-88.63 327.5,-88.63 322.72,-90.08 326.19,-84.32 317.93,-91.54 317.93,-91.54"/>
<ellipse fill="none" stroke="black" cx="314.11" cy="-92.7" rx="4" ry="4"/>
<polygon fill="black" stroke="black" points="259.71,-183.43 258.26,-173.53 260.24,-173.24 261.69,-183.14 259.71,-183.43"/>
<polyline fill="none" stroke="black" points="258,-178.63 262.95,-177.9 "/>
<polygon fill="black" stroke="black" points="264.66,-182.7 263.21,-172.81 265.19,-172.52 266.64,-182.41 264.66,-182.7"/>
<polyline fill="none" stroke="black" points="262.95,-177.9 267.89,-177.18 "/>
</g>
<!-- generator_variable_cda55ac7 -->
<g id="node5" class="node">
<title>generator_variable_cda55ac7</title>
<polygon fill="#f2e9ce" stroke="transparent" points="614,-135.63 614,-154.63 768,-154.63 768,-135.63 614,-135.63"/>
<text text-anchor="start" x="616" y="-142.43" font-family="Helvetica,sans-Serif" font-weight="bold" font-style="italic" font-size="14.00">generator_variable</text>
<polygon fill="#f2e9ce" stroke="transparent" points="768,-135.63 768,-154.63 882,-154.63 882,-135.63 768,-135.63"/>
<text text-anchor="start" x="834" y="-141.43" font-family="Helvetica,sans-Serif" font-size="14.00">[table]</text>
<text text-anchor="start" x="616" y="-122.43" font-family="Helvetica,sans-Serif" font-size="14.00">variable_id</text>
<text text-anchor="start" x="728" y="-122.43" font-family="Helvetica,sans-Serif" font-size="14.00"> </text>
<text text-anchor="start" x="770" y="-122.43" font-family="Helvetica,sans-Serif" font-size="14.00">INTEGER</text>
<text text-anchor="start" x="616" y="-103.43" font-family="Helvetica,sans-Serif" font-size="14.00">handle</text>
<text text-anchor="start" x="728" y="-103.43" font-family="Helvetica,sans-Serif" font-size="14.00"> </text>
<text text-anchor="start" x="770" y="-103.43" font-family="Helvetica,sans-Serif" font-size="14.00">INTEGER</text>
<text text-anchor="start" x="616" y="-84.43" font-family="Helvetica,sans-Serif" font-size="14.00">name</text>
<text text-anchor="start" x="728" y="-84.43" font-family="Helvetica,sans-Serif" font-size="14.00"> </text>
<text text-anchor="start" x="770" y="-84.43" font-family="Helvetica,sans-Serif" font-size="14.00">TEXT NOT NULL</text>
<polygon fill="none" stroke="#888888" points="613,-77.63 613,-155.63 883,-155.63 883,-77.63 613,-77.63"/>
</g>
<!-- generator_variable_cda55ac7&#45;&gt;instance_211708f4 -->
<g id="edge3" class="edge">
<title>generator_variable_cda55ac7:w&#45;&gt;instance_211708f4:e</title>
<path fill="none" stroke="black" d="M596.32,-99.35C586.21,-85.98 591.12,-57.84 569,-46.63 463.15,7.01 398.27,22.76 302,-46.63 254.97,-80.53 311.8,-166.88 268.13,-177.54"/>
<polygon fill="black" stroke="black" points="603.83,-102.63 611.2,-110.75 608.42,-104.63 613,-106.63 613,-106.63 613,-106.63 608.42,-104.63 614.8,-102.5 603.83,-102.63 603.83,-102.63"/>
<ellipse fill="none" stroke="black" cx="600.17" cy="-101.03" rx="4" ry="4"/>
<polygon fill="black" stroke="black" points="259.53,-183.49 258.46,-173.55 260.45,-173.34 261.52,-183.28 259.53,-183.49"/>
<polyline fill="none" stroke="black" points="258,-178.63 262.97,-178.09 "/>
<polygon fill="black" stroke="black" points="264.5,-182.96 263.43,-173.02 265.42,-172.8 266.49,-182.75 264.5,-182.96"/>
<polyline fill="none" stroke="black" points="262.97,-178.09 267.94,-177.56 "/>
</g>
<!-- generator_variable_cda55ac7&#45;&gt;variable_b58546db -->
<g id="edge10" class="edge">
<title>generator_variable_cda55ac7:w&#45;&gt;variable_b58546db:e</title>
<path fill="none" stroke="black" d="M595.73,-132.28C570.7,-154.73 607.23,-237.04 571.54,-249.14"/>
<polygon fill="black" stroke="black" points="603.5,-129.74 614.4,-130.9 608.25,-128.18 613,-126.63 613,-126.63 613,-126.63 608.25,-128.18 611.6,-122.35 603.5,-129.74 603.5,-129.74"/>
<ellipse fill="none" stroke="black" cx="599.69" cy="-130.98" rx="4" ry="4"/>
<polygon fill="black" stroke="black" points="563.22,-255.43 561.76,-245.53 563.73,-245.24 565.2,-255.13 563.22,-255.43"/>
<polyline fill="none" stroke="black" points="561.5,-250.63 566.45,-249.89 "/>
<polygon fill="black" stroke="black" points="568.17,-254.69 566.7,-244.8 568.68,-244.51 570.15,-254.4 568.17,-254.69"/>
<polyline fill="none" stroke="black" points="566.45,-249.89 571.39,-249.16 "/>
</g>
<!-- hierarchy_7e130694 -->
<g id="node6" class="node">
<title>hierarchy_7e130694</title>
<polygon fill="#f2e9ce" stroke="transparent" points="322.5,-525.63 322.5,-544.63 435.5,-544.63 435.5,-525.63 322.5,-525.63"/>
<text text-anchor="start" x="324.5" y="-532.43" font-family="Helvetica,sans-Serif" font-weight="bold" font-style="italic" font-size="14.00">hierarchy</text>
<polygon fill="#f2e9ce" stroke="transparent" points="435.5,-525.63 435.5,-544.63 549.5,-544.63 549.5,-525.63 435.5,-525.63"/>
<text text-anchor="start" x="501.5" y="-531.43" font-family="Helvetica,sans-Serif" font-size="14.00">[table]</text>
<text text-anchor="start" x="324.5" y="-512.43" font-family="Helvetica,sans-Serif" font-size="14.00">parent_handle</text>
<text text-anchor="start" x="428.5" y="-512.43" font-family="Helvetica,sans-Serif" font-size="14.00"> </text>
<text text-anchor="start" x="437.5" y="-512.43" font-family="Helvetica,sans-Serif" font-size="14.00">INTEGER</text>
<text text-anchor="start" x="324.5" y="-493.43" font-family="Helvetica,sans-Serif" font-size="14.00">name</text>
<text text-anchor="start" x="428.5" y="-493.43" font-family="Helvetica,sans-Serif" font-size="14.00"> </text>
<text text-anchor="start" x="437.5" y="-493.43" font-family="Helvetica,sans-Serif" font-size="14.00">TEXT NOT NULL</text>
<text text-anchor="start" x="324.5" y="-474.43" font-family="Helvetica,sans-Serif" font-size="14.00">handle</text>
<text text-anchor="start" x="428.5" y="-474.43" font-family="Helvetica,sans-Serif" font-size="14.00"> </text>
<text text-anchor="start" x="437.5" y="-474.43" font-family="Helvetica,sans-Serif" font-size="14.00">INTEGER</text>
<polygon fill="none" stroke="#888888" points="321,-467.63 321,-545.63 550,-545.63 550,-467.63 321,-467.63"/>
</g>
<!-- hierarchy_7e130694&#45;&gt;instance_211708f4 -->
<g id="edge4" class="edge">
<title>hierarchy_7e130694:w&#45;&gt;instance_211708f4:e</title>
<path fill="none" stroke="black" d="M304.97,-509.25C261.9,-462.43 320.83,-207.64 267.91,-180.9"/>
<polygon fill="black" stroke="black" points="312.37,-512.55 319.67,-520.74 316.93,-514.59 321.5,-516.63 321.5,-516.63 321.5,-516.63 316.93,-514.59 323.33,-512.52 312.37,-512.55 312.37,-512.55"/>
<ellipse fill="none" stroke="black" cx="308.71" cy="-510.92" rx="4" ry="4"/>
<polygon fill="black" stroke="black" points="257.86,-183.72 260.09,-173.98 262.04,-174.42 259.81,-184.17 257.86,-183.72"/>
<polyline fill="none" stroke="black" points="258,-178.63 262.87,-179.74 "/>
<polygon fill="black" stroke="black" points="262.73,-184.84 264.96,-175.09 266.91,-175.54 264.68,-185.29 262.73,-184.84"/>
<polyline fill="none" stroke="black" points="262.87,-179.74 267.75,-180.86 "/>
</g>
<!-- variable_b58546db&#45;&gt;instance_211708f4 -->
<g id="edge6" class="edge">
<title>variable_b58546db:w&#45;&gt;instance_211708f4:e</title>
<path fill="none" stroke="black" d="M293.81,-223.4C283.26,-211.34 282.92,-187.76 267.97,-180.68"/>
<polygon fill="black" stroke="black" points="301.32,-226.65 308.71,-234.76 305.91,-228.64 310.5,-230.63 310.5,-230.63 310.5,-230.63 305.91,-228.64 312.29,-226.5 301.32,-226.65 301.32,-226.65"/>
<ellipse fill="none" stroke="black" cx="297.65" cy="-225.06" rx="4" ry="4"/>
<polygon fill="black" stroke="black" points="257.97,-183.73 259.99,-173.93 261.95,-174.33 259.93,-184.13 257.97,-183.73"/>
<polyline fill="none" stroke="black" points="258,-178.63 262.9,-179.64 "/>
<polygon fill="black" stroke="black" points="262.87,-184.73 264.89,-174.94 266.84,-175.34 264.83,-185.14 262.87,-184.73"/>
<polyline fill="none" stroke="black" points="262.9,-179.64 267.79,-180.65 "/>
</g>
<!-- metadata_e52def8e -->
<g id="node9" class="node">
<title>metadata_e52def8e</title>
<polygon fill="#f2e9ce" stroke="transparent" points="651,-508.63 651,-527.63 732,-527.63 732,-508.63 651,-508.63"/>
<text text-anchor="start" x="653" y="-515.43" font-family="Helvetica,sans-Serif" font-weight="bold" font-style="italic" font-size="14.00">metadata</text>
<polygon fill="#f2e9ce" stroke="transparent" points="732,-508.63 732,-527.63 846,-527.63 846,-508.63 732,-508.63"/>
<text text-anchor="start" x="798" y="-514.43" font-family="Helvetica,sans-Serif" font-size="14.00">[table]</text>
<text text-anchor="start" x="653" y="-495.43" font-family="Helvetica,sans-Serif" font-size="14.00">name</text>
<text text-anchor="start" x="717" y="-495.43" font-family="Helvetica,sans-Serif" font-size="14.00"> </text>
<text text-anchor="start" x="734" y="-495.43" font-family="Helvetica,sans-Serif" font-size="14.00">TEXT NOT NULL</text>
<text text-anchor="start" x="653" y="-476.43" font-family="Helvetica,sans-Serif" font-size="14.00">&quot;value&quot;</text>
<text text-anchor="start" x="717" y="-476.43" font-family="Helvetica,sans-Serif" font-size="14.00"> </text>
<text text-anchor="start" x="734" y="-476.43" font-family="Helvetica,sans-Serif" font-size="14.00">TEXT NOT NULL</text>
<polygon fill="none" stroke="#888888" points="649.5,-470.13 649.5,-529.13 846.5,-529.13 846.5,-470.13 649.5,-470.13"/>
</g>
</g>
</svg>
