<?xml version="1.0" encoding="UTF-8" standalone="no"?>
<!DOCTYPE svg PUBLIC "-//W3C//DTD SVG 1.1//EN"
 "http://www.w3.org/Graphics/SVG/1.1/DTD/svg11.dtd">
<!-- Generated by graphviz version 2.43.0 (0)
 -->
<!-- Title: SchemaCrawler_Diagram Pages: 1 -->
<svg width="899pt" height="537pt"
 viewBox="0.00 0.00 899.00 537.17" xmlns="http://www.w3.org/2000/svg" xmlns:xlink="http://www.w3.org/1999/xlink">
<g id="graph0" class="graph" transform="scale(1 1) rotate(0) translate(4 533.17)">
<title>SchemaCrawler_Diagram</title>
<polygon fill="white" stroke="transparent" points="-4,4 -4,-533.17 895,-533.17 895,4 -4,4"/>
<!-- breakpoint_4e9f3850 -->
<g id="node1" class="node">
<title>breakpoint_4e9f3850</title>
<polygon fill="#f2e9ce" stroke="transparent" points="320.5,-363.17 320.5,-382.17 410.5,-382.17 410.5,-363.17 320.5,-363.17"/>
<text text-anchor="start" x="322.5" y="-369.97" font-family="Helvetica,sans-Serif" font-weight="bold" font-style="italic" font-size="14.00">breakpoint</text>
<polygon fill="#f2e9ce" stroke="transparent" points="410.5,-363.17 410.5,-382.17 551.5,-382.17 551.5,-363.17 410.5,-363.17"/>
<text text-anchor="start" x="503.5" y="-368.97" font-family="Helvetica,sans-Serif" font-size="14.00">[table]</text>
<text text-anchor="start" x="322.5" y="-350.97" font-family="Helvetica,sans-Serif" font-weight="bold" font-style="italic" font-size="14.00">id</text>
<text text-anchor="start" x="396.5" y="-349.97" font-family="Helvetica,sans-Serif" font-size="14.00"> </text>
<text text-anchor="start" x="412.5" y="-349.97" font-family="Helvetica,sans-Serif" font-size="14.00">INTEGER NOT NULL</text>
<text text-anchor="start" x="322.5" y="-330.97" font-family="Helvetica,sans-Serif" font-size="14.00">filename</text>
<text text-anchor="start" x="396.5" y="-330.97" font-family="Helvetica,sans-Serif" font-size="14.00"> </text>
<text text-anchor="start" x="412.5" y="-330.97" font-family="Helvetica,sans-Serif" font-size="14.00">TEXT NOT NULL</text>
<text text-anchor="start" x="322.5" y="-311.97" font-family="Helvetica,sans-Serif" font-size="14.00">line_num</text>
<text text-anchor="start" x="396.5" y="-311.97" font-family="Helvetica,sans-Serif" font-size="14.00"> </text>
<text text-anchor="start" x="412.5" y="-311.97" font-family="Helvetica,sans-Serif" font-size="14.00">INTEGER NOT NULL</text>
<polygon fill="none" stroke="#888888" points="319,-305.17 319,-383.17 552,-383.17 552,-305.17 319,-305.17"/>
</g>
<!-- context_38b7aa0e -->
<g id="node2" class="node">
<title>context_38b7aa0e</title>
<polygon fill="#f2e9ce" stroke="transparent" points="638,-278.17 638,-297.17 745,-297.17 745,-278.17 638,-278.17"/>
<text text-anchor="start" x="640" y="-284.97" font-family="Helvetica,sans-Serif" font-weight="bold" font-style="italic" font-size="14.00">context</text>
<polygon fill="#f2e9ce" stroke="transparent" points="745,-278.17 745,-297.17 859,-297.17 859,-278.17 745,-278.17"/>
<text text-anchor="start" x="811" y="-283.97" font-family="Helvetica,sans-Serif" font-size="14.00">[table]</text>
<text text-anchor="start" x="640" y="-264.97" font-family="Helvetica,sans-Serif" font-size="14.00">variable_id</text>
<text text-anchor="start" x="738" y="-264.97" font-family="Helvetica,sans-Serif" font-size="14.00"> </text>
<text text-anchor="start" x="747" y="-264.97" font-family="Helvetica,sans-Serif" font-size="14.00">INTEGER</text>
<text text-anchor="start" x="640" y="-245.97" font-family="Helvetica,sans-Serif" font-size="14.00">breakpoint_id</text>
<text text-anchor="start" x="738" y="-245.97" font-family="Helvetica,sans-Serif" font-size="14.00"> </text>
<text text-anchor="start" x="747" y="-245.97" font-family="Helvetica,sans-Serif" font-size="14.00">INTEGER</text>
<text text-anchor="start" x="640" y="-226.97" font-family="Helvetica,sans-Serif" font-size="14.00">name</text>
<text text-anchor="start" x="738" y="-226.97" font-family="Helvetica,sans-Serif" font-size="14.00"> </text>
<text text-anchor="start" x="747" y="-226.97" font-family="Helvetica,sans-Serif" font-size="14.00">TEXT NOT NULL</text>
<polygon fill="none" stroke="#888888" points="636.5,-220.17 636.5,-298.17 859.5,-298.17 859.5,-220.17 636.5,-220.17"/>
</g>
<!-- context_38b7aa0e&#45;&gt;breakpoint_4e9f3850 -->
<g id="edge1" class="edge">
<title>context_38b7aa0e:w&#45;&gt;breakpoint_4e9f3850:e</title>
<path fill="none" stroke="black" d="M619.09,-253.42C586.7,-271.68 602.48,-343.07 562.56,-353.02"/>
<polygon fill="black" stroke="black" points="627.27,-251.48 638.04,-253.55 632.13,-250.33 637,-249.17 637,-249.17 637,-249.17 632.13,-250.33 635.96,-244.79 627.27,-251.48 627.27,-251.48"/>
<ellipse fill="none" stroke="black" cx="623.38" cy="-252.4" rx="4" ry="4"/>
<polygon fill="black" stroke="black" points="554.06,-359.03 552.92,-349.09 554.91,-348.86 556.05,-358.8 554.06,-359.03"/>
<polyline fill="none" stroke="black" points="552.5,-354.17 557.47,-353.6 "/>
<polygon fill="black" stroke="black" points="559.03,-358.46 557.89,-348.52 559.88,-348.29 561.02,-358.23 559.03,-358.46"/>
<polyline fill="none" stroke="black" points="557.47,-353.6 562.43,-353.03 "/>
</g>
<!-- variable_b58546db -->
<g id="node8" class="node">
<title>variable_b58546db</title>
<polygon fill="#f2e9ce" stroke="transparent" points="311.5,-258.17 311.5,-277.17 419.5,-277.17 419.5,-258.17 311.5,-258.17"/>
<text text-anchor="start" x="313.5" y="-264.97" font-family="Helvetica,sans-Serif" font-weight="bold" font-style="italic" font-size="14.00">variable</text>
<polygon fill="#f2e9ce" stroke="transparent" points="419.5,-258.17 419.5,-277.17 560.5,-277.17 560.5,-258.17 419.5,-258.17"/>
<text text-anchor="start" x="512.5" y="-263.97" font-family="Helvetica,sans-Serif" font-size="14.00">[table]</text>
<text text-anchor="start" x="313.5" y="-245.97" font-family="Helvetica,sans-Serif" font-weight="bold" font-style="italic" font-size="14.00">id</text>
<text text-anchor="start" x="412.5" y="-244.97" font-family="Helvetica,sans-Serif" font-size="14.00"> </text>
<text text-anchor="start" x="421.5" y="-244.97" font-family="Helvetica,sans-Serif" font-size="14.00">INTEGER NOT NULL</text>
<text text-anchor="start" x="313.5" y="-225.97" font-family="Helvetica,sans-Serif" font-size="14.00">handle</text>
<text text-anchor="start" x="412.5" y="-225.97" font-family="Helvetica,sans-Serif" font-size="14.00"> </text>
<text text-anchor="start" x="421.5" y="-225.97" font-family="Helvetica,sans-Serif" font-size="14.00">INTEGER</text>
<text text-anchor="start" x="313.5" y="-206.97" font-family="Helvetica,sans-Serif" font-size="14.00">&quot;value&quot;</text>
<text text-anchor="start" x="412.5" y="-206.97" font-family="Helvetica,sans-Serif" font-size="14.00"> </text>
<text text-anchor="start" x="421.5" y="-206.97" font-family="Helvetica,sans-Serif" font-size="14.00">TEXT NOT NULL</text>
<text text-anchor="start" x="313.5" y="-187.97" font-family="Helvetica,sans-Serif" font-size="14.00">is_verilog_var</text>
<text text-anchor="start" x="412.5" y="-187.97" font-family="Helvetica,sans-Serif" font-size="14.00"> </text>
<text text-anchor="start" x="421.5" y="-187.97" font-family="Helvetica,sans-Serif" font-size="14.00">INTEGER NOT NULL</text>
<polygon fill="none" stroke="#888888" points="310,-181.67 310,-278.67 561,-278.67 561,-181.67 310,-181.67"/>
</g>
<!-- context_38b7aa0e&#45;&gt;variable_b58546db -->
<g id="edge9" class="edge">
<title>context_38b7aa0e:w&#45;&gt;variable_b58546db:e</title>
<path fill="none" stroke="black" d="M618.91,-267.03C601.33,-262.56 591.87,-252.41 571.63,-249.8"/>
<polygon fill="black" stroke="black" points="627.07,-268 636.47,-273.64 632.03,-268.59 637,-269.17 637,-269.17 637,-269.17 632.03,-268.59 637.53,-264.7 627.07,-268 627.07,-268"/>
<ellipse fill="none" stroke="black" cx="623.1" cy="-267.53" rx="4" ry="4"/>
<polygon fill="black" stroke="black" points="562.19,-254.23 562.81,-244.24 564.8,-244.37 564.19,-254.35 562.19,-254.23"/>
<polyline fill="none" stroke="black" points="561.5,-249.17 566.49,-249.48 "/>
<polygon fill="black" stroke="black" points="567.18,-254.53 567.8,-244.55 569.79,-244.68 569.18,-254.66 567.18,-254.53"/>
<polyline fill="none" stroke="black" points="566.49,-249.48 571.48,-249.79 "/>
</g>
<!-- instance_set_d40da217 -->
<g id="node3" class="node">
<title>instance_set_d40da217</title>
<polygon fill="#f2e9ce" stroke="transparent" points="662,-404.17 662,-423.17 769,-423.17 769,-404.17 662,-404.17"/>
<text text-anchor="start" x="664" y="-410.97" font-family="Helvetica,sans-Serif" font-weight="bold" font-style="italic" font-size="14.00">instance_set</text>
<polygon fill="#f2e9ce" stroke="transparent" points="769,-404.17 769,-423.17 835,-423.17 835,-404.17 769,-404.17"/>
<text text-anchor="start" x="787" y="-409.97" font-family="Helvetica,sans-Serif" font-size="14.00">[table]</text>
<text text-anchor="start" x="664" y="-390.97" font-family="Helvetica,sans-Serif" font-size="14.00">instance_id</text>
<text text-anchor="start" x="762" y="-390.97" font-family="Helvetica,sans-Serif" font-size="14.00"> </text>
<text text-anchor="start" x="771" y="-390.97" font-family="Helvetica,sans-Serif" font-size="14.00">INTEGER</text>
<text text-anchor="start" x="664" y="-371.97" font-family="Helvetica,sans-Serif" font-size="14.00">breakpoint_id</text>
<text text-anchor="start" x="762" y="-371.97" font-family="Helvetica,sans-Serif" font-size="14.00"> </text>
<text text-anchor="start" x="771" y="-371.97" font-family="Helvetica,sans-Serif" font-size="14.00">INTEGER</text>
<polygon fill="none" stroke="#888888" points="660.5,-365.67 660.5,-424.67 835.5,-424.67 835.5,-365.67 660.5,-365.67"/>
</g>
<!-- instance_set_d40da217&#45;&gt;breakpoint_4e9f3850 -->
<g id="edge2" class="edge">
<title>instance_set_d40da217:w&#45;&gt;breakpoint_4e9f3850:e</title>
<path fill="none" stroke="black" d="M642.83,-374.1C611.31,-370.19 597.37,-356.78 562.82,-354.5"/>
<polygon fill="black" stroke="black" points="651.02,-374.59 660.74,-379.67 656.01,-374.88 661,-375.17 661,-375.17 661,-375.17 656.01,-374.88 661.26,-370.68 651.02,-374.59 651.02,-374.59"/>
<ellipse fill="none" stroke="black" cx="647.02" cy="-374.35" rx="4" ry="4"/>
<polygon fill="black" stroke="black" points="553.34,-359.2 553.66,-349.21 555.66,-349.27 555.34,-359.27 553.34,-359.2"/>
<polyline fill="none" stroke="black" points="552.5,-354.17 557.5,-354.33 "/>
<polygon fill="black" stroke="black" points="558.34,-359.36 558.66,-349.37 560.66,-349.43 560.34,-359.43 558.34,-359.36"/>
<polyline fill="none" stroke="black" points="557.5,-354.33 562.49,-354.49 "/>
</g>
<!-- instance_211708f4 -->
<g id="node7" class="node">
<title>instance_211708f4</title>
<polygon fill="#f2e9ce" stroke="transparent" points="9,-187.17 9,-206.17 116,-206.17 116,-187.17 9,-187.17"/>
<text text-anchor="start" x="11" y="-193.97" font-family="Helvetica,sans-Serif" font-weight="bold" font-style="italic" font-size="14.00">instance</text>
<polygon fill="#f2e9ce" stroke="transparent" points="116,-187.17 116,-206.17 257,-206.17 257,-187.17 116,-187.17"/>
<text text-anchor="start" x="209" y="-192.97" font-family="Helvetica,sans-Serif" font-size="14.00">[table]</text>
<text text-anchor="start" x="11" y="-174.97" font-family="Helvetica,sans-Serif" font-weight="bold" font-style="italic" font-size="14.00">id</text>
<text text-anchor="start" x="109" y="-173.97" font-family="Helvetica,sans-Serif" font-size="14.00"> </text>
<text text-anchor="start" x="118" y="-173.97" font-family="Helvetica,sans-Serif" font-size="14.00">INTEGER NOT NULL</text>
<text text-anchor="start" x="11" y="-154.97" font-family="Helvetica,sans-Serif" font-size="14.00">handle_name</text>
<text text-anchor="start" x="109" y="-154.97" font-family="Helvetica,sans-Serif" font-size="14.00"> </text>
<text text-anchor="start" x="118" y="-154.97" font-family="Helvetica,sans-Serif" font-size="14.00">TEXT NOT NULL</text>
<polygon fill="none" stroke="#888888" points="8,-148.67 8,-207.67 258,-207.67 258,-148.67 8,-148.67"/>
</g>
<!-- instance_set_d40da217&#45;&gt;instance_211708f4 -->
<g id="edge5" class="edge">
<title>instance_set_d40da217:w&#45;&gt;instance_211708f4:e</title>
<path fill="none" stroke="black" d="M642.8,-394.86C552.21,-400.88 359.5,-443.27 302,-396.17 228.05,-335.6 347.76,-188.63 268.12,-177.81"/>
<polygon fill="black" stroke="black" points="651.01,-394.55 661.17,-398.67 656,-394.36 661,-394.17 661,-394.17 661,-394.17 656,-394.36 660.83,-389.68 651.01,-394.55 651.01,-394.55"/>
<ellipse fill="none" stroke="black" cx="647.01" cy="-394.7" rx="4" ry="4"/>
<polygon fill="black" stroke="black" points="258.69,-182.23 259.31,-172.25 261.31,-172.37 260.68,-182.35 258.69,-182.23"/>
<polyline fill="none" stroke="black" points="258,-177.17 262.99,-177.49 "/>
<polygon fill="black" stroke="black" points="263.68,-182.54 264.3,-172.56 266.3,-172.68 265.67,-182.66 263.68,-182.54"/>
<polyline fill="none" stroke="black" points="262.99,-177.49 267.98,-177.8 "/>
</g>
<!-- connection_d1c4f33d -->
<g id="node4" class="node">
<title>connection_d1c4f33d</title>
<polygon fill="#f2e9ce" stroke="transparent" points="328.5,-135.17 328.5,-154.17 428.5,-154.17 428.5,-135.17 328.5,-135.17"/>
<text text-anchor="start" x="330.5" y="-141.97" font-family="Helvetica,sans-Serif" font-weight="bold" font-style="italic" font-size="14.00">connection</text>
<polygon fill="#f2e9ce" stroke="transparent" points="428.5,-135.17 428.5,-154.17 542.5,-154.17 542.5,-135.17 428.5,-135.17"/>
<text text-anchor="start" x="494.5" y="-140.97" font-family="Helvetica,sans-Serif" font-size="14.00">[table]</text>
<text text-anchor="start" x="330.5" y="-121.97" font-family="Helvetica,sans-Serif" font-size="14.00">handle_from</text>
<text text-anchor="start" x="421.5" y="-121.97" font-family="Helvetica,sans-Serif" font-size="14.00"> </text>
<text text-anchor="start" x="430.5" y="-121.97" font-family="Helvetica,sans-Serif" font-size="14.00">INTEGER</text>
<text text-anchor="start" x="330.5" y="-102.97" font-family="Helvetica,sans-Serif" font-size="14.00">var_from</text>
<text text-anchor="start" x="421.5" y="-102.97" font-family="Helvetica,sans-Serif" font-size="14.00"> </text>
<text text-anchor="start" x="430.5" y="-102.97" font-family="Helvetica,sans-Serif" font-size="14.00">TEXT NOT NULL</text>
<text text-anchor="start" x="330.5" y="-83.97" font-family="Helvetica,sans-Serif" font-size="14.00">handle_to</text>
<text text-anchor="start" x="421.5" y="-83.97" font-family="Helvetica,sans-Serif" font-size="14.00"> </text>
<text text-anchor="start" x="430.5" y="-83.97" font-family="Helvetica,sans-Serif" font-size="14.00">INTEGER</text>
<text text-anchor="start" x="330.5" y="-64.97" font-family="Helvetica,sans-Serif" font-size="14.00">var_to</text>
<text text-anchor="start" x="421.5" y="-64.97" font-family="Helvetica,sans-Serif" font-size="14.00"> </text>
<text text-anchor="start" x="430.5" y="-64.97" font-family="Helvetica,sans-Serif" font-size="14.00">TEXT NOT NULL</text>
<polygon fill="none" stroke="#888888" points="327.5,-58.67 327.5,-155.67 543.5,-155.67 543.5,-58.67 327.5,-58.67"/>
</g>
<!-- connection_d1c4f33d&#45;&gt;instance_211708f4 -->
<g id="edge7" class="edge">
<title>connection_d1c4f33d:w&#45;&gt;instance_211708f4:e</title>
<path fill="none" stroke="black" d="M309.86,-131.06C292.62,-142.28 289.56,-169.4 268.03,-175.8"/>
<polygon fill="black" stroke="black" points="317.86,-128.84 328.7,-130.51 322.68,-127.51 327.5,-126.17 327.5,-126.17 327.5,-126.17 322.68,-127.51 326.3,-121.84 317.86,-128.84 317.86,-128.84"/>
<ellipse fill="none" stroke="black" cx="314.01" cy="-129.91" rx="4" ry="4"/>
<polygon fill="black" stroke="black" points="259.67,-181.99 258.31,-172.08 260.3,-171.81 261.65,-181.72 259.67,-181.99"/>
<polyline fill="none" stroke="black" points="258,-177.17 262.95,-176.5 "/>
<polygon fill="black" stroke="black" points="264.62,-181.31 263.27,-171.41 265.25,-171.14 266.6,-181.04 264.62,-181.31"/>
<polyline fill="none" stroke="black" points="262.95,-176.5 267.91,-175.82 "/>
</g>
<!-- connection_d1c4f33d&#45;&gt;instance_211708f4 -->
<g id="edge8" class="edge">
<title>connection_d1c4f33d:w&#45;&gt;instance_211708f4:e</title>
<path fill="none" stroke="black" d="M309.89,-92.53C286.81,-110.17 298.41,-165.82 268.23,-175.67"/>
<polygon fill="black" stroke="black" points="317.93,-90.08 328.81,-91.48 322.72,-88.63 327.5,-87.17 327.5,-87.17 327.5,-87.17 322.72,-88.63 326.19,-82.87 317.93,-90.08 317.93,-90.08"/>
<ellipse fill="none" stroke="black" cx="314.11" cy="-91.25" rx="4" ry="4"/>
<polygon fill="black" stroke="black" points="259.71,-181.98 258.26,-172.08 260.24,-171.79 261.69,-181.69 259.71,-181.98"/>
<polyline fill="none" stroke="black" points="258,-177.17 262.95,-176.45 "/>
<polygon fill="black" stroke="black" points="264.66,-181.25 263.21,-171.36 265.19,-171.07 266.64,-180.96 264.66,-181.25"/>
<polyline fill="none" stroke="black" points="262.95,-176.45 267.89,-175.72 "/>
</g>
<!-- generator_variable_cda55ac7 -->
<g id="node5" class="node">
<title>generator_variable_cda55ac7</title>
<polygon fill="#f2e9ce" stroke="transparent" points="614,-125.17 614,-144.17 768,-144.17 768,-125.17 614,-125.17"/>
<text text-anchor="start" x="616" y="-131.97" font-family="Helvetica,sans-Serif" font-weight="bold" font-style="italic" font-size="14.00">generator_variable</text>
<polygon fill="#f2e9ce" stroke="transparent" points="768,-125.17 768,-144.17 882,-144.17 882,-125.17 768,-125.17"/>
<text text-anchor="start" x="834" y="-130.97" font-family="Helvetica,sans-Serif" font-size="14.00">[table]</text>
<text text-anchor="start" x="616" y="-111.97" font-family="Helvetica,sans-Serif" font-size="14.00">variable_id</text>
<text text-anchor="start" x="728" y="-111.97" font-family="Helvetica,sans-Serif" font-size="14.00"> </text>
<text text-anchor="start" x="770" y="-111.97" font-family="Helvetica,sans-Serif" font-size="14.00">INTEGER</text>
<text text-anchor="start" x="616" y="-92.97" font-family="Helvetica,sans-Serif" font-size="14.00">handle</text>
<text text-anchor="start" x="728" y="-92.97" font-family="Helvetica,sans-Serif" font-size="14.00"> </text>
<text text-anchor="start" x="770" y="-92.97" font-family="Helvetica,sans-Serif" font-size="14.00">INTEGER</text>
<text text-anchor="start" x="616" y="-73.97" font-family="Helvetica,sans-Serif" font-size="14.00">name</text>
<text text-anchor="start" x="728" y="-73.97" font-family="Helvetica,sans-Serif" font-size="14.00"> </text>
<text text-anchor="start" x="770" y="-73.97" font-family="Helvetica,sans-Serif" font-size="14.00">TEXT NOT NULL</text>
<polygon fill="none" stroke="#888888" points="613,-67.17 613,-145.17 883,-145.17 883,-67.17 613,-67.17"/>
</g>
<!-- generator_variable_cda55ac7&#45;&gt;instance_211708f4 -->
<g id="edge3" class="edge">
<title>generator_variable_cda55ac7:w&#45;&gt;instance_211708f4:e</title>
<path fill="none" stroke="black" d="M596.4,-88.85C587.24,-77.05 588.78,-54.23 569,-45.17 461.11,4.24 398.27,24.21 302,-45.17 254.97,-79.07 311.8,-165.43 268.13,-176.09"/>
<polygon fill="black" stroke="black" points="603.85,-92.14 611.18,-100.29 608.43,-94.16 613,-96.17 613,-96.17 613,-96.17 608.43,-94.16 614.82,-92.06 603.85,-92.14 603.85,-92.14"/>
<ellipse fill="none" stroke="black" cx="600.19" cy="-90.52" rx="4" ry="4"/>
<polygon fill="black" stroke="black" points="259.53,-182.04 258.46,-172.1 260.45,-171.88 261.52,-181.83 259.53,-182.04"/>
<polyline fill="none" stroke="black" points="258,-177.17 262.97,-176.64 "/>
<polygon fill="black" stroke="black" points="264.5,-181.51 263.43,-171.56 265.42,-171.35 266.49,-181.29 264.5,-181.51"/>
<polyline fill="none" stroke="black" points="262.97,-176.64 267.94,-176.11 "/>
</g>
<!-- generator_variable_cda55ac7&#45;&gt;variable_b58546db -->
<g id="edge10" class="edge">
<title>generator_variable_cda55ac7:w&#45;&gt;variable_b58546db:e</title>
<path fill="none" stroke="black" d="M595.58,-121.55C567.9,-144.68 610.38,-235.11 571.73,-247.71"/>
<polygon fill="black" stroke="black" points="603.45,-119.12 614.33,-120.47 608.22,-117.65 613,-116.17 613,-116.17 613,-116.17 608.22,-117.65 611.67,-111.87 603.45,-119.12 603.45,-119.12"/>
<ellipse fill="none" stroke="black" cx="599.62" cy="-120.3" rx="4" ry="4"/>
<polygon fill="black" stroke="black" points="563.2,-253.98 561.78,-244.08 563.76,-243.8 565.18,-253.7 563.2,-253.98"/>
<polyline fill="none" stroke="black" points="561.5,-249.17 566.45,-248.47 "/>
<polygon fill="black" stroke="black" points="568.15,-253.27 566.73,-243.38 568.71,-243.09 570.13,-252.99 568.15,-253.27"/>
<polyline fill="none" stroke="black" points="566.45,-248.47 571.4,-247.76 "/>
</g>
<!-- hierarchy_7e130694 -->
<g id="node6" class="node">
<title>hierarchy_7e130694</title>
<polygon fill="#f2e9ce" stroke="transparent" points="322.5,-505.17 322.5,-524.17 435.5,-524.17 435.5,-505.17 322.5,-505.17"/>
<text text-anchor="start" x="324.5" y="-511.97" font-family="Helvetica,sans-Serif" font-weight="bold" font-style="italic" font-size="14.00">hierarchy</text>
<polygon fill="#f2e9ce" stroke="transparent" points="435.5,-505.17 435.5,-524.17 549.5,-524.17 549.5,-505.17 435.5,-505.17"/>
<text text-anchor="start" x="501.5" y="-510.97" font-family="Helvetica,sans-Serif" font-size="14.00">[table]</text>
<text text-anchor="start" x="324.5" y="-491.97" font-family="Helvetica,sans-Serif" font-size="14.00">parent_handle</text>
<text text-anchor="start" x="428.5" y="-491.97" font-family="Helvetica,sans-Serif" font-size="14.00"> </text>
<text text-anchor="start" x="437.5" y="-491.97" font-family="Helvetica,sans-Serif" font-size="14.00">INTEGER</text>
<text text-anchor="start" x="324.5" y="-472.97" font-family="Helvetica,sans-Serif" font-size="14.00">name</text>
<text text-anchor="start" x="428.5" y="-472.97" font-family="Helvetica,sans-Serif" font-size="14.00"> </text>
<text text-anchor="start" x="437.5" y="-472.97" font-family="Helvetica,sans-Serif" font-size="14.00">TEXT NOT NULL</text>
<text text-anchor="start" x="324.5" y="-453.97" font-family="Helvetica,sans-Serif" font-size="14.00">handle</text>
<text text-anchor="start" x="428.5" y="-453.97" font-family="Helvetica,sans-Serif" font-size="14.00"> </text>
<text text-anchor="start" x="437.5" y="-453.97" font-family="Helvetica,sans-Serif" font-size="14.00">INTEGER</text>
<polygon fill="none" stroke="#888888" points="321,-447.17 321,-525.17 550,-525.17 550,-447.17 321,-447.17"/>
</g>
<!-- hierarchy_7e130694&#45;&gt;instance_211708f4 -->
<g id="edge4" class="edge">
<title>hierarchy_7e130694:w&#45;&gt;instance_211708f4:e</title>
<path fill="none" stroke="black" d="M304.96,-488.29C265.44,-441.95 316.99,-206.17 267.96,-179.61"/>
<polygon fill="black" stroke="black" points="312.47,-491.87 319.56,-500.24 316.99,-494.02 321.5,-496.17 321.5,-496.17 321.5,-496.17 316.99,-494.02 323.44,-492.11 312.47,-491.87 312.47,-491.87"/>
<ellipse fill="none" stroke="black" cx="308.86" cy="-490.15" rx="4" ry="4"/>
<polygon fill="black" stroke="black" points="257.78,-182.27 260.16,-172.55 262.1,-173.03 259.73,-182.74 257.78,-182.27"/>
<polyline fill="none" stroke="black" points="258,-177.17 262.86,-178.36 "/>
<polygon fill="black" stroke="black" points="262.64,-183.46 265.02,-173.74 266.96,-174.22 264.58,-183.93 262.64,-183.46"/>
<polyline fill="none" stroke="black" points="262.86,-178.36 267.71,-179.55 "/>
</g>
<!-- variable_b58546db&#45;&gt;instance_211708f4 -->
<g id="edge6" class="edge">
<title>variable_b58546db:w&#45;&gt;instance_211708f4:e</title>
<path fill="none" stroke="black" d="M293.81,-221.94C283.26,-209.89 282.92,-186.3 267.97,-179.23"/>
<polygon fill="black" stroke="black" points="301.32,-225.2 308.71,-233.3 305.91,-227.19 310.5,-229.17 310.5,-229.17 310.5,-229.17 305.91,-227.19 312.29,-225.04 301.32,-225.2 301.32,-225.2"/>
<ellipse fill="none" stroke="black" cx="297.65" cy="-223.61" rx="4" ry="4"/>
<polygon fill="black" stroke="black" points="257.97,-182.27 259.99,-172.48 261.95,-172.88 259.93,-182.68 257.97,-182.27"/>
<polyline fill="none" stroke="black" points="258,-177.17 262.9,-178.18 "/>
<polygon fill="black" stroke="black" points="262.87,-183.28 264.89,-173.49 266.84,-173.89 264.83,-183.69 262.87,-183.28"/>
<polyline fill="none" stroke="black" points="262.9,-178.18 267.79,-179.19 "/>
</g>
<!-- metadata_e52def8e -->
<g id="node9" class="node">
<title>metadata_e52def8e</title>
<polygon fill="#f2e9ce" stroke="transparent" points="651,-489.17 651,-508.17 732,-508.17 732,-489.17 651,-489.17"/>
<text text-anchor="start" x="653" y="-495.97" font-family="Helvetica,sans-Serif" font-weight="bold" font-style="italic" font-size="14.00">metadata</text>
<polygon fill="#f2e9ce" stroke="transparent" points="732,-489.17 732,-508.17 846,-508.17 846,-489.17 732,-489.17"/>
<text text-anchor="start" x="798" y="-494.97" font-family="Helvetica,sans-Serif" font-size="14.00">[table]</text>
<text text-anchor="start" x="653" y="-475.97" font-family="Helvetica,sans-Serif" font-size="14.00">name</text>
<text text-anchor="start" x="717" y="-475.97" font-family="Helvetica,sans-Serif" font-size="14.00"> </text>
<text text-anchor="start" x="734" y="-475.97" font-family="Helvetica,sans-Serif" font-size="14.00">TEXT NOT NULL</text>
<text text-anchor="start" x="653" y="-456.97" font-family="Helvetica,sans-Serif" font-size="14.00">&quot;value&quot;</text>
<text text-anchor="start" x="717" y="-456.97" font-family="Helvetica,sans-Serif" font-size="14.00"> </text>
<text text-anchor="start" x="734" y="-456.97" font-family="Helvetica,sans-Serif" font-size="14.00">TEXT NOT NULL</text>
<polygon fill="none" stroke="#888888" points="649.5,-450.67 649.5,-509.67 846.5,-509.67 846.5,-450.67 649.5,-450.67"/>
</g>
</g>
</svg>
